<svg id="svg" version="1.1" xmlns="http://www.w3.org/2000/svg" xmlns:xlink="http://www.w3.org/1999/xlink" width="400" height="93.86640178793147" viewBox="0, 0, 400,93.86640178793147"><g id="svgg"><path id="path0" d="M0.000 46.917 L 0.000 93.833 67.667 93.833 L 135.333 93.833 135.333 92.250 L 135.333 90.667 234.167 90.667 L 333.000 90.667 333.000 89.250 L 333.000 87.833 234.167 87.833 L 135.333 87.833 135.333 85.667 L 135.333 83.500 237.917 83.500 L 340.500 83.500 340.500 81.750 L 340.500 80.000 237.917 80.000 L 135.333 80.000 135.333 77.333 L 135.333 74.667 245.083 74.667 L 354.833 74.667 354.833 72.167 L 354.833 69.667 245.083 69.667 L 135.333 69.667 135.333 67.083 L 135.333 64.500 251.250 64.500 L 367.167 64.500 367.167 60.500 L 367.167 56.500 251.250 56.500 L 135.333 56.500 135.333 28.250 L 135.333 0.000 67.667 0.000 L 0.000 0.000 0.000 46.917 M110.167 35.917 L 110.167 60.000 86.083 60.000 L 62.000 60.000 62.000 36.028 C 62.000 22.843,62.050 12.006,62.111 11.944 C 62.172 11.883,73.010 11.833,86.194 11.833 L 110.167 11.833 110.167 35.917 M87.442 20.588 C 87.083 21.457,85.823 23.182,84.333 24.844 C 80.604 29.006,80.081 32.166,82.681 34.811 C 83.242 35.381,84.929 36.500,85.228 36.500 C 85.258 36.500,85.146 36.106,84.980 35.625 C 83.989 32.756,84.854 30.125,87.835 26.951 L 89.211 25.485 89.100 24.397 C 89.038 23.799,88.918 23.184,88.832 23.030 C 88.747 22.876,88.516 22.130,88.319 21.373 C 87.889 19.713,87.827 19.658,87.442 20.588 M92.333 23.160 C 92.333 23.494,90.767 25.622,90.270 25.963 C 88.548 27.145,86.645 29.399,85.967 31.059 C 85.494 32.217,85.302 34.374,85.639 34.758 C 85.715 34.845,85.876 35.254,85.996 35.667 L 86.215 36.417 86.409 35.500 C 86.696 34.148,87.514 32.697,88.538 31.722 C 89.407 30.895,91.763 29.333,92.140 29.333 C 93.458 29.333,93.918 26.840,93.070 24.292 C 92.701 23.186,92.333 22.620,92.333 23.160 M80.511 23.989 C 80.490 24.451,78.741 27.557,77.998 28.454 C 77.633 28.894,77.294 30.747,77.374 31.867 C 77.574 34.653,79.621 36.551,82.654 36.760 C 83.257 36.802,83.646 36.788,83.518 36.730 C 81.457 35.783,79.484 32.020,80.148 30.300 C 80.229 30.089,80.415 29.502,80.561 28.995 C 80.708 28.488,81.020 27.813,81.256 27.495 C 81.736 26.848,81.718 26.292,81.181 25.194 C 81.018 24.858,80.802 24.396,80.703 24.167 C 80.604 23.938,80.517 23.858,80.511 23.989 M95.917 27.500 C 95.774 27.775,95.603 28.000,95.536 28.000 C 95.469 28.000,95.040 28.337,94.582 28.748 C 94.125 29.160,93.600 29.545,93.417 29.604 C 93.233 29.663,93.046 29.764,93.000 29.829 C 92.954 29.893,92.384 30.224,91.733 30.564 C 90.229 31.349,88.867 32.568,88.333 33.606 C 88.104 34.052,87.869 34.454,87.810 34.500 C 87.662 34.615,87.167 36.322,87.167 36.717 C 87.167 37.301,89.996 36.924,91.686 36.116 C 94.239 34.896,95.756 32.181,96.246 27.958 C 96.371 26.880,96.293 26.772,95.917 27.500 M82.500 38.917 L 82.500 39.833 85.816 39.833 L 89.132 39.833 89.125 38.917 L 89.118 38.000 85.809 38.000 L 82.500 38.000 82.500 38.917 M84.008 41.458 C 84.013 41.894,84.123 43.112,84.253 44.167 C 84.383 45.221,84.671 47.796,84.893 49.890 C 85.444 55.087,85.797 55.391,86.354 51.150 C 87.004 46.197,87.613 40.915,87.547 40.792 C 87.510 40.723,86.697 40.667,85.740 40.667 L 84.000 40.667 84.008 41.458 M99.869 70.583 C 99.939 76.503,99.993 76.783,101.221 77.605 C 102.923 78.744,105.250 78.196,106.088 76.459 C 106.499 75.606,106.500 75.592,106.500 70.463 L 106.500 65.322 108.375 65.370 L 110.250 65.417 110.299 69.333 C 110.384 76.216,110.000 78.184,108.237 79.896 C 105.748 82.314,100.469 82.257,97.990 79.786 C 96.312 78.113,95.967 76.359,96.036 69.833 L 96.083 65.417 97.833 65.333 C 98.796 65.287,99.634 65.287,99.696 65.333 C 99.757 65.379,99.836 67.742,99.869 70.583 M66.583 66.682 C 67.133 67.417,67.743 68.221,67.938 68.468 C 68.133 68.715,68.713 69.479,69.228 70.167 C 69.743 70.854,70.296 71.577,70.457 71.774 C 70.618 71.970,70.996 72.458,71.297 72.857 C 71.598 73.257,72.067 73.875,72.339 74.231 L 72.833 74.879 72.833 70.106 L 72.833 65.333 74.668 65.333 L 76.503 65.333 76.460 73.375 L 76.417 81.417 74.898 81.464 C 73.455 81.510,73.367 81.492,73.118 81.113 C 72.974 80.893,72.755 80.609,72.631 80.482 C 72.507 80.354,71.960 79.650,71.416 78.917 C 70.871 78.183,70.386 77.546,70.337 77.500 C 70.206 77.377,66.807 72.890,66.417 72.324 C 65.699 71.283,65.677 71.400,65.675 76.382 C 65.673 78.968,65.671 81.180,65.669 81.297 C 65.667 81.461,65.246 81.500,63.875 81.464 L 62.083 81.417 62.040 73.375 L 61.997 65.333 63.790 65.339 L 65.583 65.345 66.583 66.682 M83.667 66.864 C 84.171 67.703,84.801 68.771,85.067 69.237 C 85.333 69.702,85.596 70.121,85.652 70.167 C 85.708 70.212,85.897 70.524,86.073 70.860 L 86.393 71.469 86.673 71.110 C 86.827 70.912,87.077 70.508,87.228 70.213 C 87.380 69.918,87.698 69.393,87.935 69.046 C 88.173 68.700,88.436 68.267,88.522 68.083 C 88.607 67.900,88.999 67.225,89.393 66.583 L 90.109 65.417 92.221 65.370 C 93.383 65.344,94.333 65.367,94.333 65.420 C 94.333 65.473,93.677 66.542,92.875 67.796 C 92.073 69.050,91.342 70.199,91.250 70.349 C 91.158 70.500,90.940 70.839,90.765 71.103 C 90.590 71.367,90.281 71.846,90.078 72.167 C 89.876 72.487,89.419 73.198,89.063 73.746 L 88.417 74.742 88.333 78.079 L 88.250 81.417 86.417 81.417 L 84.583 81.417 84.557 78.198 C 84.531 75.034,84.523 74.968,84.099 74.327 C 83.861 73.968,83.667 73.597,83.667 73.504 C 83.667 73.410,83.608 73.333,83.536 73.333 C 83.464 73.333,83.267 73.090,83.097 72.792 C 82.928 72.494,82.547 71.875,82.251 71.417 C 81.955 70.958,81.431 70.133,81.086 69.583 C 80.742 69.033,80.245 68.271,79.980 67.889 C 79.716 67.508,79.498 67.133,79.495 67.056 C 79.493 66.979,79.268 66.622,78.995 66.262 C 78.290 65.330,78.283 65.333,80.625 65.335 L 82.750 65.337 83.667 66.864 " stroke="none" fill="#54048c" fill-rule="evenodd"></path><path id="path1" d="M135.333 28.250 L 135.333 56.500 251.336 56.500 L 367.339 56.500 367.295 60.458 L 367.250 64.417 251.292 64.458 L 135.333 64.500 135.333 67.000 L 135.333 69.500 245.125 69.542 L 354.917 69.583 354.963 72.208 L 355.008 74.833 245.171 74.833 L 135.333 74.833 135.333 77.333 L 135.333 79.833 237.958 79.875 L 340.583 79.917 340.631 81.708 L 340.678 83.500 238.006 83.500 L 135.333 83.500 135.333 85.667 L 135.333 87.833 234.167 87.833 L 333.000 87.833 333.000 89.250 L 333.000 90.667 234.167 90.667 L 135.333 90.667 135.333 92.250 L 135.333 93.833 267.667 93.833 L 400.000 93.833 400.000 46.917 L 400.000 0.000 267.667 0.000 L 135.333 0.000 135.333 28.250 M84.073 24.875 L 83.583 25.417 84.125 24.927 C 84.630 24.471,84.743 24.333,84.615 24.333 C 84.586 24.333,84.342 24.577,84.073 24.875 M190.976 30.292 L 191.000 29.667 191.833 29.667 L 192.667 29.667 192.667 39.500 L 192.667 49.333 192.083 49.333 C 191.611 49.333,191.500 49.397,191.500 49.667 C 191.500 49.968,191.389 50.000,190.333 50.000 L 189.167 50.000 189.167 49.487 C 189.167 48.991,188.331 48.873,188.000 49.321 C 187.379 50.161,184.735 50.495,182.935 49.959 C 179.805 49.029,178.410 43.512,180.368 39.803 C 180.845 38.900,182.420 37.204,182.700 37.292 C 182.773 37.315,182.833 37.250,182.833 37.147 C 182.833 37.039,182.983 37.000,183.191 37.055 C 183.452 37.123,183.498 37.098,183.364 36.964 C 183.186 36.786,183.781 36.333,184.194 36.333 C 184.279 36.333,184.641 36.192,184.998 36.020 C 185.812 35.627,187.673 35.646,188.494 36.055 C 188.801 36.208,189.077 36.333,189.109 36.333 C 189.141 36.333,189.167 35.096,189.167 33.583 L 189.167 30.833 189.917 30.833 L 190.667 30.833 190.690 30.208 L 190.714 29.583 190.833 30.250 L 190.953 30.917 190.976 30.292 M236.167 34.104 C 236.167 38.029,236.196 38.517,236.417 38.333 C 236.554 38.219,236.667 38.063,236.667 37.985 C 236.667 37.803,237.801 36.667,237.983 36.667 C 238.059 36.667,238.307 36.521,238.534 36.343 C 238.760 36.164,239.164 35.983,239.431 35.940 C 239.698 35.896,239.917 35.844,239.917 35.823 C 239.917 35.694,242.122 35.745,242.292 35.878 C 242.406 35.967,242.500 35.991,242.500 35.931 C 242.500 35.871,242.669 35.915,242.875 36.029 C 243.081 36.143,243.362 36.214,243.500 36.186 C 243.637 36.158,243.696 36.190,243.629 36.257 C 243.563 36.325,243.721 36.501,243.979 36.648 C 244.588 36.996,245.617 38.160,245.692 38.585 C 245.724 38.768,245.787 38.954,245.833 39.000 C 246.137 39.303,246.323 39.833,246.126 39.836 C 245.970 39.838,245.974 39.875,246.143 39.982 C 246.281 40.069,246.327 40.258,246.261 40.465 C 246.202 40.652,246.231 40.854,246.327 40.912 C 246.543 41.046,246.558 43.445,246.343 43.577 C 246.257 43.631,246.207 43.954,246.233 44.296 C 246.259 44.637,246.164 45.142,246.022 45.417 C 245.880 45.692,245.751 45.954,245.735 46.000 C 245.718 46.046,245.650 46.252,245.583 46.458 C 245.516 46.665,245.395 46.833,245.314 46.833 C 245.233 46.833,245.165 46.927,245.163 47.042 C 245.157 47.355,244.034 48.541,243.850 48.427 C 243.762 48.373,243.646 48.461,243.591 48.623 C 243.003 50.363,238.247 50.764,236.625 49.210 C 236.257 48.858,236.167 48.827,236.167 49.052 C 236.167 49.207,236.054 49.333,235.917 49.333 C 235.778 49.333,235.667 49.481,235.667 49.667 C 235.667 49.968,235.556 50.000,234.500 50.000 L 233.333 50.000 233.333 40.417 L 233.333 30.833 233.917 30.833 C 234.472 30.833,234.500 30.806,234.500 30.250 L 234.500 29.667 235.333 29.667 L 236.167 29.667 236.167 34.104 M80.883 31.167 C 80.883 31.671,80.915 31.877,80.953 31.625 C 80.991 31.373,80.991 30.960,80.953 30.708 C 80.915 30.456,80.883 30.662,80.883 31.167 M290.250 30.667 C 290.416 30.850,290.493 31.000,290.422 31.000 C 290.351 31.000,290.386 31.112,290.499 31.249 C 290.666 31.450,290.654 31.578,290.436 31.910 C 290.288 32.136,290.167 32.505,290.167 32.729 C 290.167 33.374,289.245 34.056,288.530 33.940 C 287.107 33.709,286.736 32.039,287.934 31.254 C 288.153 31.110,288.333 30.888,288.333 30.760 C 288.333 30.241,289.800 30.170,290.250 30.667 M147.833 31.583 C 147.833 32.306,147.815 32.333,147.333 32.333 C 146.844 32.333,146.833 32.352,146.833 33.167 L 146.833 34.000 143.667 34.000 L 140.500 34.000 140.500 36.667 L 140.500 39.333 144.000 39.333 L 147.500 39.333 147.500 40.073 C 147.500 40.785,147.480 40.814,146.958 40.864 C 146.461 40.912,146.412 40.969,146.364 41.557 L 146.311 42.197 143.031 42.140 C 141.226 42.109,139.919 42.107,140.125 42.137 L 140.500 42.190 140.500 45.762 C 140.500 49.222,140.490 49.333,140.167 49.333 C 139.944 49.333,139.833 49.444,139.833 49.667 C 139.833 49.968,139.722 50.000,138.667 50.000 L 137.500 50.000 137.500 40.917 L 137.500 31.833 138.083 31.833 C 138.620 31.833,138.667 31.794,138.667 31.333 L 138.667 30.833 143.250 30.833 L 147.833 30.833 147.833 31.583 M197.106 31.083 C 197.054 31.221,197.065 31.333,197.131 31.333 C 197.197 31.333,197.334 31.596,197.434 31.917 C 197.539 32.252,197.552 32.500,197.463 32.500 C 197.379 32.500,197.427 32.618,197.571 32.762 C 197.866 33.056,197.920 33.240,197.667 33.083 C 197.575 33.027,197.500 33.060,197.500 33.157 C 197.500 33.254,197.579 33.333,197.677 33.333 C 197.774 33.333,197.807 33.408,197.750 33.500 C 197.693 33.592,197.726 33.667,197.823 33.667 C 197.921 33.667,198.000 33.929,198.000 34.250 C 198.000 34.571,198.084 34.833,198.186 34.833 C 198.294 34.833,198.339 35.006,198.294 35.245 C 198.250 35.471,198.279 35.617,198.357 35.568 C 198.436 35.520,198.500 35.705,198.500 35.980 C 198.500 36.255,198.582 36.531,198.682 36.593 C 198.783 36.655,198.831 36.882,198.790 37.098 C 198.749 37.313,198.772 37.454,198.843 37.411 C 198.947 37.346,199.156 38.100,199.261 38.917 C 199.291 39.151,199.495 39.696,199.687 40.052 C 199.776 40.218,199.800 40.509,199.740 40.698 C 199.667 40.927,199.692 41.004,199.814 40.928 C 199.928 40.858,199.997 40.962,199.996 41.199 C 199.994 41.875,200.052 42.167,200.189 42.167 C 200.263 42.167,200.277 42.287,200.220 42.433 C 200.164 42.580,200.187 42.749,200.271 42.808 C 200.514 42.981,200.785 43.717,200.753 44.117 C 200.737 44.319,200.780 44.450,200.849 44.407 C 200.918 44.364,200.999 44.440,201.029 44.575 C 201.059 44.711,201.913 41.918,202.927 38.369 L 204.771 31.917 205.255 31.860 C 205.704 31.808,206.299 31.244,206.207 30.958 C 206.185 30.890,206.525 30.833,206.964 30.833 C 207.705 30.833,207.763 30.864,207.797 31.275 C 207.817 31.518,207.917 31.817,208.020 31.941 C 208.122 32.064,208.167 32.315,208.119 32.499 C 208.070 32.683,208.091 32.797,208.164 32.752 C 208.286 32.676,208.461 33.394,208.536 34.281 C 208.553 34.481,208.627 34.608,208.700 34.563 C 208.773 34.517,208.833 34.710,208.833 34.990 C 208.833 35.286,208.921 35.501,209.042 35.503 C 209.181 35.504,209.167 35.559,209.000 35.667 C 208.862 35.756,208.836 35.829,208.941 35.831 C 209.045 35.832,209.176 35.950,209.230 36.092 C 209.287 36.240,209.259 36.307,209.165 36.249 C 209.074 36.193,209.000 36.226,209.000 36.323 C 209.000 36.421,209.088 36.500,209.194 36.500 C 209.301 36.500,209.339 36.550,209.277 36.612 C 209.216 36.673,209.285 36.906,209.431 37.129 C 209.577 37.352,209.659 37.676,209.614 37.851 C 209.568 38.025,209.594 38.128,209.672 38.080 C 209.815 37.992,210.101 39.402,210.022 39.808 C 209.997 39.932,210.049 39.990,210.135 39.936 C 210.306 39.831,210.500 40.585,210.500 41.354 C 210.500 41.618,210.559 41.833,210.630 41.833 C 210.848 41.833,211.143 42.806,211.042 43.191 C 210.977 43.439,211.008 43.515,211.140 43.433 C 211.270 43.353,211.333 43.480,211.333 43.823 C 211.333 44.119,211.421 44.334,211.542 44.336 C 211.683 44.338,211.669 44.395,211.500 44.515 C 211.292 44.662,211.291 44.681,211.492 44.626 C 211.625 44.590,211.821 44.228,211.928 43.822 C 212.035 43.416,212.699 40.833,213.405 38.083 C 215.171 31.202,214.948 31.833,215.610 31.833 C 215.916 31.833,216.176 31.758,216.188 31.667 C 216.199 31.575,216.227 31.425,216.250 31.333 C 216.273 31.242,216.301 31.092,216.313 31.000 C 216.324 30.906,216.823 30.839,217.458 30.846 C 218.077 30.854,218.490 30.897,218.375 30.944 C 218.260 30.990,218.167 31.251,218.167 31.524 C 218.167 31.808,218.096 31.976,218.002 31.918 C 217.906 31.859,217.880 31.929,217.941 32.086 C 217.998 32.234,217.969 32.520,217.876 32.720 C 217.617 33.280,216.925 35.825,216.973 36.042 C 216.988 36.110,216.935 36.167,216.855 36.167 C 216.775 36.167,216.660 36.544,216.598 37.006 C 216.537 37.467,216.427 37.808,216.354 37.763 C 216.280 37.717,216.210 37.950,216.198 38.280 C 216.185 38.609,216.053 39.065,215.904 39.293 C 215.714 39.582,215.701 39.666,215.858 39.572 C 216.035 39.465,216.043 39.488,215.894 39.676 C 215.790 39.809,215.652 40.236,215.587 40.626 C 215.523 41.016,215.403 41.293,215.320 41.242 C 215.238 41.191,215.213 41.261,215.266 41.397 C 215.343 41.599,214.860 43.298,214.383 44.500 C 214.329 44.637,214.277 44.913,214.267 45.111 C 214.258 45.310,214.194 45.529,214.125 45.597 C 214.056 45.666,214.000 45.902,214.000 46.121 C 214.000 46.340,213.936 46.480,213.857 46.432 C 213.779 46.383,213.750 46.529,213.794 46.755 C 213.839 46.994,213.794 47.167,213.686 47.167 C 213.584 47.167,213.500 47.353,213.500 47.580 C 213.500 48.069,213.020 49.333,212.835 49.333 C 212.764 49.333,212.665 49.486,212.617 49.674 C 212.535 49.987,212.418 50.010,211.152 49.965 L 209.777 49.917 209.566 49.250 C 209.450 48.883,208.897 46.933,208.337 44.917 C 206.368 37.831,206.119 37.000,205.966 37.000 C 205.881 37.000,205.858 37.150,205.917 37.333 C 205.977 37.525,205.947 37.667,205.845 37.667 C 205.747 37.667,205.676 37.723,205.686 37.792 C 205.761 38.262,205.641 38.837,205.489 38.743 C 205.391 38.683,205.327 38.734,205.347 38.858 C 205.409 39.254,205.130 40.497,204.997 40.415 C 204.926 40.371,204.865 40.504,204.860 40.709 C 204.846 41.376,204.633 42.165,204.492 42.078 C 204.416 42.031,204.388 42.177,204.428 42.403 C 204.469 42.628,204.427 42.859,204.335 42.916 C 204.242 42.973,204.167 43.207,204.167 43.436 C 204.167 43.666,204.103 43.813,204.024 43.765 C 203.946 43.716,203.915 43.853,203.956 44.069 C 203.998 44.284,203.949 44.512,203.849 44.574 C 203.749 44.636,203.667 44.874,203.667 45.103 C 203.667 45.332,203.599 45.478,203.516 45.426 C 203.432 45.375,203.404 45.483,203.452 45.667 C 203.500 45.851,203.464 46.095,203.372 46.209 C 203.280 46.323,203.152 46.735,203.088 47.125 C 203.023 47.515,202.902 47.833,202.819 47.833 C 202.735 47.833,202.666 48.002,202.664 48.208 C 202.661 48.828,202.474 49.333,202.250 49.333 C 202.134 49.333,201.999 49.486,201.950 49.674 C 201.868 49.987,201.751 50.010,200.478 49.965 L 199.095 49.917 198.732 48.667 C 198.532 47.979,197.879 45.729,197.281 43.667 C 194.961 35.664,193.978 32.303,193.890 32.073 C 193.818 31.886,193.966 31.833,194.561 31.833 C 195.298 31.833,195.320 31.819,195.173 31.434 C 194.967 30.891,195.068 30.833,196.212 30.833 C 197.024 30.833,197.185 30.878,197.106 31.083 M256.833 31.040 C 256.833 31.140,256.877 31.179,256.930 31.125 C 256.984 31.072,257.274 31.132,257.576 31.258 C 257.877 31.384,258.170 31.442,258.225 31.386 C 258.280 31.331,258.373 31.409,258.431 31.559 C 258.488 31.710,258.609 31.833,258.699 31.833 C 258.948 31.833,260.167 33.039,260.167 33.284 C 260.167 33.403,260.246 33.500,260.343 33.500 C 260.440 33.500,260.479 33.567,260.428 33.648 C 260.378 33.729,260.440 33.881,260.566 33.986 C 260.711 34.106,260.767 34.384,260.720 34.738 C 260.678 35.047,260.724 35.349,260.822 35.410 C 261.056 35.554,261.052 36.615,260.818 36.760 C 260.717 36.822,260.671 37.058,260.714 37.285 C 260.809 37.779,260.506 38.857,260.307 38.734 C 260.230 38.686,260.167 38.801,260.167 38.990 C 260.167 39.179,260.110 39.333,260.041 39.333 C 259.971 39.333,259.808 39.575,259.677 39.870 C 258.754 41.955,256.504 43.167,253.554 43.167 L 251.833 43.167 251.833 46.250 C 251.833 49.222,251.821 49.333,251.500 49.333 C 251.278 49.333,251.167 49.444,251.167 49.667 C 251.167 49.968,251.056 50.000,250.000 50.000 L 248.833 50.000 248.833 40.917 L 248.833 31.833 249.333 31.833 C 249.779 31.833,249.833 31.778,249.833 31.328 L 249.833 30.822 253.333 30.840 C 255.744 30.852,256.833 30.914,256.833 31.040 M322.500 34.111 L 322.500 36.000 324.250 36.000 L 326.000 36.000 326.000 36.750 C 326.000 37.306,325.935 37.500,325.750 37.500 C 325.565 37.500,325.500 37.694,325.500 38.250 L 325.500 39.000 323.995 39.000 L 322.490 39.000 322.506 43.082 C 322.518 46.325,322.569 47.212,322.753 47.396 C 322.880 47.523,322.938 47.673,322.881 47.730 C 322.824 47.787,322.870 47.833,322.982 47.833 C 323.094 47.833,323.141 47.907,323.085 47.998 C 323.024 48.096,323.099 48.118,323.269 48.053 C 323.430 47.991,323.513 48.011,323.458 48.099 C 323.380 48.226,324.641 48.282,324.792 48.159 C 324.815 48.140,324.908 48.106,325.000 48.083 C 325.092 48.060,325.185 48.027,325.208 48.008 C 325.668 47.642,326.015 47.885,325.968 48.541 C 325.935 48.999,325.843 49.235,325.708 49.208 C 325.594 49.185,325.500 49.319,325.500 49.504 C 325.500 50.634,321.894 50.433,320.851 49.244 C 320.085 48.372,320.002 47.783,320.001 43.216 L 320.000 39.015 318.875 38.966 L 317.750 38.917 317.699 38.028 C 317.655 37.250,317.691 37.129,317.991 37.051 C 318.236 36.986,318.333 36.825,318.333 36.481 C 318.333 36.015,318.359 36.000,319.167 36.000 L 320.000 36.000 320.000 34.984 C 320.000 34.118,320.048 33.956,320.324 33.884 C 320.557 33.823,320.663 33.628,320.699 33.196 C 320.745 32.649,320.812 32.575,321.413 32.407 C 322.537 32.093,322.500 32.036,322.500 34.111 M84.714 33.417 C 84.716 33.875,84.748 34.043,84.786 33.789 C 84.825 33.536,84.824 33.161,84.784 32.956 C 84.744 32.751,84.713 32.958,84.714 33.417 M251.833 37.262 L 251.833 40.523 253.792 40.454 C 256.636 40.353,257.094 40.137,257.491 38.708 C 258.304 35.783,256.685 34.000,253.220 34.000 L 251.833 34.000 251.833 37.262 M158.125 35.833 C 158.148 35.856,158.223 35.886,158.292 35.901 C 159.046 36.054,160.301 36.689,160.835 37.187 C 161.201 37.528,161.501 37.757,161.502 37.695 C 161.506 37.552,161.961 38.324,162.100 38.708 C 162.158 38.869,162.265 39.000,162.337 39.000 C 162.410 39.000,162.427 39.162,162.375 39.359 C 162.304 39.629,162.336 39.685,162.502 39.582 C 162.659 39.485,162.695 39.520,162.625 39.702 C 162.570 39.844,162.606 40.039,162.704 40.137 C 162.801 40.234,162.881 40.658,162.881 41.079 C 162.881 41.499,162.945 41.883,163.024 41.931 C 163.200 42.040,163.214 43.230,163.042 43.403 C 162.973 43.471,162.911 43.690,162.905 43.889 C 162.886 44.452,162.639 45.407,162.488 45.504 C 162.413 45.552,162.308 45.852,162.255 46.171 C 162.200 46.497,161.978 46.898,161.746 47.090 C 161.519 47.276,161.333 47.517,161.333 47.625 C 161.333 47.859,160.767 48.189,160.473 48.127 C 160.359 48.103,160.262 48.188,160.258 48.317 C 160.253 48.445,160.100 48.608,159.917 48.680 C 159.733 48.751,159.658 48.816,159.750 48.823 C 159.913 48.835,159.765 48.925,158.417 49.632 C 156.096 50.850,152.612 50.310,150.832 48.459 C 148.476 46.007,148.443 41.095,150.768 38.741 C 152.717 36.767,153.567 36.203,154.954 35.962 C 155.158 35.926,155.363 35.860,155.409 35.813 C 155.491 35.731,158.043 35.749,158.125 35.833 M173.917 36.000 C 174.192 36.104,174.417 36.180,174.417 36.167 C 174.417 36.035,175.324 36.544,175.564 36.810 C 175.737 37.002,175.962 37.111,176.064 37.053 C 176.166 36.994,176.194 37.009,176.125 37.085 C 175.957 37.270,176.499 37.854,176.715 37.720 C 176.808 37.662,176.840 37.688,176.785 37.777 C 176.730 37.866,176.831 38.045,177.009 38.173 C 177.187 38.302,177.333 38.582,177.333 38.797 C 177.333 39.052,177.401 39.145,177.528 39.066 C 177.659 38.985,177.688 39.036,177.617 39.223 C 177.558 39.375,177.591 39.500,177.690 39.500 C 177.788 39.500,177.827 39.610,177.775 39.745 C 177.723 39.879,177.754 40.034,177.843 40.090 C 177.932 40.145,177.962 40.260,177.910 40.345 C 177.857 40.430,177.879 40.500,177.959 40.500 C 178.038 40.500,178.127 40.819,178.155 41.208 C 178.287 43.039,178.198 44.667,177.966 44.667 C 177.893 44.667,177.842 44.723,177.853 44.792 C 177.917 45.199,177.801 45.676,177.583 45.893 C 177.446 46.030,177.331 46.279,177.329 46.446 C 177.326 46.613,177.103 46.967,176.833 47.232 C 176.563 47.496,176.382 47.778,176.431 47.857 C 176.480 47.935,176.414 48.000,176.286 48.000 C 176.157 48.000,175.916 48.150,175.750 48.333 C 175.584 48.517,175.347 48.667,175.224 48.667 C 175.101 48.667,175.000 48.723,175.000 48.792 C 174.999 49.052,173.331 49.839,172.230 50.097 C 165.027 51.785,161.204 42.664,167.038 37.708 C 167.604 37.227,168.170 36.833,168.294 36.833 C 168.418 36.833,168.473 36.758,168.417 36.667 C 168.360 36.575,168.374 36.494,168.448 36.488 C 168.907 36.445,169.415 36.308,169.493 36.204 C 169.597 36.065,169.853 35.994,170.667 35.880 C 170.987 35.835,171.285 35.765,171.327 35.725 C 171.462 35.596,173.396 35.801,173.917 36.000 M227.250 35.823 C 227.250 35.842,227.438 35.892,227.667 35.934 C 227.896 35.976,228.108 36.083,228.139 36.173 C 228.170 36.262,228.264 36.293,228.348 36.241 C 228.431 36.189,228.500 36.226,228.500 36.323 C 228.500 36.421,228.652 36.500,228.839 36.500 C 229.025 36.500,229.220 36.612,229.273 36.750 C 229.326 36.887,229.478 37.000,229.611 37.000 C 229.744 37.000,229.813 37.064,229.765 37.142 C 229.717 37.221,229.860 37.457,230.083 37.667 C 230.307 37.877,230.450 38.113,230.402 38.191 C 230.353 38.269,230.393 38.333,230.490 38.333 C 230.587 38.333,230.667 38.521,230.667 38.750 C 230.667 38.979,230.754 39.167,230.861 39.167 C 230.968 39.167,231.008 39.214,230.950 39.272 C 230.892 39.330,230.931 39.536,231.036 39.730 C 231.141 39.924,231.223 40.721,231.218 41.500 C 231.210 42.642,231.232 42.771,231.329 42.167 L 231.450 41.417 231.475 42.204 C 231.500 42.990,231.499 42.991,231.011 42.894 C 230.544 42.800,230.520 42.825,230.470 43.440 L 230.417 44.083 226.125 44.128 C 221.972 44.171,221.833 44.183,221.833 44.503 C 221.833 44.685,221.899 44.833,221.979 44.833 C 222.059 44.833,222.173 45.137,222.232 45.508 C 222.292 45.885,222.412 46.138,222.503 46.081 C 222.593 46.026,222.667 46.094,222.667 46.234 C 222.667 46.696,224.025 47.833,224.708 47.943 C 225.056 47.998,225.375 48.099,225.416 48.166 C 225.604 48.470,227.297 48.147,228.375 47.600 C 228.994 47.287,229.500 47.108,229.500 47.202 C 229.500 47.300,229.616 47.278,229.767 47.153 C 230.335 46.681,230.517 46.813,230.478 47.671 C 230.458 48.116,230.398 48.477,230.346 48.472 C 230.049 48.447,229.500 48.736,229.500 48.918 C 229.500 49.774,225.448 50.568,223.459 50.102 C 219.800 49.244,217.929 44.793,219.494 40.667 C 219.917 39.553,222.243 36.833,222.773 36.833 C 222.898 36.833,223.000 36.758,223.000 36.667 C 223.000 36.575,223.088 36.500,223.195 36.500 C 223.303 36.500,223.509 36.393,223.654 36.261 C 223.799 36.130,224.121 35.995,224.369 35.962 C 224.618 35.929,224.863 35.859,224.914 35.808 C 224.998 35.724,227.250 35.738,227.250 35.823 M280.250 35.825 C 280.250 35.864,280.580 35.944,281.127 36.039 C 281.335 36.075,281.594 36.194,281.702 36.302 C 281.811 36.411,281.991 36.500,282.103 36.500 C 282.215 36.500,282.609 36.791,282.979 37.146 C 283.349 37.502,283.693 37.752,283.742 37.702 C 283.792 37.652,283.833 37.738,283.833 37.894 C 283.833 38.050,283.946 38.220,284.083 38.273 C 284.221 38.326,284.333 38.511,284.333 38.684 C 284.333 38.858,284.401 39.000,284.484 39.000 C 284.567 39.000,284.593 39.162,284.541 39.359 C 284.472 39.624,284.504 39.684,284.662 39.586 C 284.806 39.497,284.849 39.530,284.794 39.685 C 284.749 39.812,284.788 40.065,284.882 40.246 C 285.234 40.927,285.031 45.423,284.637 45.680 C 284.555 45.733,284.451 45.996,284.406 46.264 C 284.360 46.531,284.150 46.900,283.937 47.083 C 283.725 47.267,283.502 47.556,283.441 47.726 C 283.367 47.934,283.237 47.999,283.045 47.925 C 282.888 47.865,282.808 47.863,282.866 47.922 C 283.224 48.280,280.916 49.750,279.485 50.075 C 274.039 51.314,270.071 46.623,271.817 41.010 C 272.297 39.470,274.717 36.654,275.780 36.400 C 276.038 36.338,276.327 36.228,276.421 36.154 C 276.515 36.081,276.793 35.994,277.040 35.961 C 277.286 35.928,277.526 35.863,277.573 35.815 C 277.652 35.737,280.250 35.746,280.250 35.825 M300.750 35.823 C 300.750 35.842,300.938 35.892,301.167 35.934 C 301.396 35.976,301.608 36.083,301.639 36.173 C 301.670 36.262,301.764 36.293,301.848 36.241 C 301.931 36.189,302.000 36.226,302.000 36.323 C 302.000 36.421,302.119 36.500,302.265 36.500 C 302.411 36.500,302.721 36.650,302.955 36.833 C 303.188 37.017,303.317 37.167,303.241 37.167 C 303.166 37.167,303.320 37.392,303.583 37.667 C 303.847 37.942,303.996 38.167,303.916 38.167 C 303.835 38.167,303.909 38.268,304.079 38.393 C 304.268 38.531,304.347 38.725,304.282 38.893 C 304.223 39.048,304.259 39.167,304.366 39.167 C 304.470 39.167,304.508 39.214,304.450 39.272 C 304.392 39.330,304.431 39.536,304.537 39.730 C 304.739 40.102,304.737 41.844,304.534 43.250 L 304.413 44.083 299.915 44.167 C 296.027 44.239,295.425 44.284,295.479 44.500 C 295.751 45.591,295.800 45.919,295.712 46.061 C 295.654 46.155,295.728 46.179,295.889 46.117 C 296.068 46.048,296.167 46.095,296.167 46.249 C 296.167 46.700,297.502 47.794,298.309 48.005 C 299.205 48.239,301.000 48.343,301.000 48.160 C 301.000 48.092,301.206 47.978,301.458 47.907 C 302.305 47.668,303.005 47.370,303.303 47.123 C 303.835 46.682,304.017 46.829,303.978 47.671 C 303.957 48.127,303.865 48.467,303.766 48.449 C 303.670 48.431,303.566 48.579,303.536 48.778 C 303.380 49.795,299.633 50.612,297.459 50.102 C 293.381 49.146,291.709 44.190,293.953 39.710 C 294.286 39.044,294.633 38.500,294.724 38.500 C 294.815 38.500,294.847 38.458,294.796 38.407 C 294.660 38.271,296.012 36.833,296.276 36.833 C 296.399 36.833,296.500 36.758,296.500 36.667 C 296.500 36.575,296.588 36.500,296.695 36.500 C 296.803 36.500,297.009 36.393,297.154 36.261 C 297.299 36.130,297.621 35.995,297.869 35.962 C 298.118 35.929,298.363 35.859,298.414 35.808 C 298.498 35.724,300.750 35.738,300.750 35.823 M315.250 35.811 C 315.342 35.864,315.492 35.926,315.583 35.949 C 316.885 36.271,317.000 36.378,317.000 37.275 C 317.000 38.053,316.968 38.127,316.667 38.048 C 316.365 37.969,316.333 38.043,316.333 38.833 C 316.333 39.698,316.330 39.703,315.958 39.463 C 312.277 37.086,308.187 40.172,309.172 44.583 C 309.294 45.133,309.381 45.640,309.364 45.708 C 309.347 45.777,309.413 45.833,309.510 45.833 C 309.607 45.833,309.645 45.900,309.594 45.983 C 309.543 46.065,309.622 46.178,309.770 46.235 C 309.988 46.318,309.999 46.383,309.829 46.589 C 309.656 46.797,309.664 46.824,309.873 46.744 C 310.018 46.688,310.332 46.828,310.605 47.070 C 310.868 47.304,311.160 47.558,311.253 47.634 C 311.490 47.829,312.500 48.170,312.500 48.054 C 312.500 48.002,312.599 48.041,312.720 48.142 C 313.072 48.434,314.817 48.140,315.597 47.658 C 315.886 47.479,316.276 47.333,316.464 47.333 C 316.652 47.333,316.843 47.240,316.890 47.125 C 316.936 47.010,316.980 47.310,316.987 47.790 C 316.997 48.492,316.934 48.705,316.667 48.872 C 316.483 48.987,316.333 49.166,316.333 49.272 C 316.333 49.776,313.444 50.427,312.006 50.248 C 306.069 49.506,304.547 42.544,309.229 37.548 C 309.591 37.162,309.942 36.881,310.009 36.922 C 310.077 36.964,310.175 36.886,310.227 36.749 C 310.280 36.612,310.460 36.500,310.628 36.500 C 310.796 36.500,311.023 36.410,311.133 36.300 C 311.243 36.190,311.334 36.171,311.336 36.258 C 311.337 36.345,311.399 36.321,311.473 36.204 C 311.548 36.087,311.846 35.974,312.137 35.954 C 312.428 35.933,312.666 35.871,312.666 35.814 C 312.667 35.685,315.026 35.682,315.250 35.811 M270.676 35.920 C 271.241 36.099,271.150 37.711,270.583 37.568 C 270.175 37.466,270.167 37.484,270.167 38.416 C 270.167 39.263,270.134 39.354,269.875 39.237 C 268.734 38.721,266.500 39.283,266.500 40.086 C 266.500 40.222,266.444 40.334,266.375 40.334 C 266.306 40.335,266.230 40.679,266.206 41.100 C 266.181 41.521,266.087 42.003,265.997 42.172 C 265.905 42.344,265.833 43.978,265.833 45.906 C 265.833 48.080,265.772 49.333,265.667 49.333 C 265.575 49.333,265.500 49.483,265.500 49.667 C 265.500 49.968,265.389 50.000,264.333 50.000 L 263.167 50.000 263.167 43.500 L 263.167 37.000 263.750 37.000 C 264.287 37.000,264.333 36.960,264.333 36.500 C 264.333 36.019,264.361 36.000,265.083 36.000 L 265.833 36.000 265.833 37.361 C 265.833 38.110,265.882 38.673,265.942 38.613 C 266.002 38.553,266.050 37.922,266.049 37.210 L 266.047 35.917 266.148 37.072 L 266.250 38.227 266.739 37.450 C 267.009 37.023,267.264 36.709,267.308 36.752 C 267.351 36.796,267.489 36.685,267.615 36.506 C 267.742 36.324,267.950 36.222,268.088 36.275 C 268.223 36.327,268.333 36.291,268.333 36.197 C 268.333 35.917,270.034 35.716,270.676 35.920 M290.196 42.875 C 290.226 49.718,290.221 50.115,290.104 50.750 C 290.070 50.933,290.033 51.294,290.021 51.552 C 290.009 51.813,289.927 51.975,289.835 51.918 C 289.740 51.859,289.713 51.927,289.771 52.078 C 289.895 52.401,289.516 53.363,289.314 53.238 C 289.233 53.188,289.167 53.221,289.167 53.312 C 289.167 54.909,285.539 56.519,283.525 55.817 C 282.919 55.606,282.697 53.819,283.250 53.606 C 283.591 53.476,284.024 53.660,283.888 53.879 C 283.819 53.991,283.883 54.017,284.063 53.948 C 284.219 53.888,284.480 53.922,284.643 54.024 C 284.873 54.167,285.111 54.133,285.706 53.870 C 287.384 53.128,287.494 52.516,287.497 43.875 L 287.500 37.000 288.000 37.000 C 288.444 37.000,288.500 36.944,288.500 36.500 C 288.500 36.011,288.519 36.000,289.333 36.000 L 290.167 36.000 290.196 42.875 M155.375 36.782 C 155.535 36.823,155.798 36.823,155.958 36.782 C 156.119 36.740,155.987 36.705,155.667 36.705 C 155.346 36.705,155.215 36.740,155.375 36.782 M170.542 36.782 C 170.702 36.823,170.965 36.823,171.125 36.782 C 171.285 36.740,171.154 36.705,170.833 36.705 C 170.512 36.705,170.381 36.740,170.542 36.782 M277.708 36.782 C 277.869 36.823,278.131 36.823,278.292 36.782 C 278.452 36.740,278.321 36.705,278.000 36.705 C 277.679 36.705,277.548 36.740,277.708 36.782 M313.042 36.782 C 313.202 36.823,313.465 36.823,313.625 36.782 C 313.785 36.740,313.654 36.705,313.333 36.705 C 313.012 36.705,312.881 36.740,313.042 36.782 M188.354 37.817 C 188.916 38.318,189.097 38.407,189.143 38.203 C 189.206 37.927,188.708 37.455,188.494 37.587 C 188.427 37.629,188.278 37.551,188.165 37.415 C 188.052 37.278,187.884 37.167,187.791 37.167 C 187.699 37.167,187.952 37.459,188.354 37.817 M82.235 38.063 C 82.186 38.189,82.171 38.658,82.202 39.105 L 82.256 39.917 82.336 38.875 C 82.417 37.822,82.395 37.645,82.235 38.063 M154.088 38.932 C 153.401 39.184,152.604 39.841,152.289 40.417 C 151.895 41.135,151.860 44.048,152.238 44.651 C 152.335 44.806,152.324 44.847,152.204 44.773 C 152.105 44.712,152.262 45.147,152.553 45.740 C 152.845 46.334,153.177 46.823,153.292 46.826 C 153.406 46.830,153.481 46.908,153.458 47.000 C 153.397 47.247,154.355 47.779,155.535 48.154 C 159.717 49.482,161.178 40.391,157.018 38.923 C 156.124 38.608,154.965 38.611,154.088 38.932 M169.373 38.889 C 168.616 39.164,167.778 39.867,167.356 40.582 C 167.160 40.915,167.075 41.140,167.166 41.084 C 167.263 41.024,167.332 41.178,167.331 41.448 C 167.329 41.756,167.281 41.843,167.192 41.702 C 167.114 41.579,167.056 42.031,167.056 42.750 C 167.056 43.469,167.114 43.921,167.192 43.798 C 167.308 43.616,167.353 43.925,167.331 44.751 C 167.330 44.798,167.521 45.214,167.755 45.677 C 168.170 46.495,169.161 47.701,169.172 47.400 C 169.175 47.317,169.287 47.396,169.422 47.574 C 169.557 47.751,169.667 47.836,169.667 47.761 C 169.667 47.687,169.768 47.710,169.892 47.813 C 170.016 47.916,170.316 48.016,170.559 48.036 C 170.801 48.056,171.000 48.141,171.000 48.225 C 171.000 49.067,173.529 47.564,174.113 46.375 C 176.158 42.210,173.181 37.508,169.373 38.889 M184.238 38.992 C 183.865 39.158,183.300 39.607,182.983 39.990 L 182.405 40.685 182.441 42.551 C 182.490 45.051,182.483 44.984,182.762 45.523 C 182.897 45.783,182.986 46.032,182.962 46.075 C 182.871 46.232,184.039 47.500,184.275 47.500 C 184.410 47.500,184.478 47.567,184.427 47.649 C 184.318 47.827,184.714 48.000,185.230 48.000 C 185.434 48.000,185.683 48.083,185.785 48.185 C 186.317 48.717,188.147 47.432,188.775 46.085 C 189.297 44.963,189.342 41.811,188.851 40.750 C 188.030 38.977,186.005 38.206,184.238 38.992 M223.320 39.140 C 222.646 39.567,221.817 40.500,222.111 40.500 C 222.177 40.500,222.085 40.610,221.907 40.745 C 221.729 40.879,221.675 40.992,221.786 40.995 C 221.898 40.998,221.946 41.112,221.894 41.250 C 221.810 41.467,222.211 41.500,224.899 41.500 C 226.920 41.500,228.000 41.440,228.000 41.328 C 228.000 39.273,225.185 37.957,223.320 39.140 M237.811 39.131 C 237.319 39.387,236.843 39.762,236.752 39.964 C 236.662 40.167,236.533 40.333,236.466 40.333 C 236.399 40.333,236.384 40.439,236.434 40.569 C 236.487 40.707,236.399 40.837,236.221 40.883 C 235.966 40.949,235.962 40.964,236.195 40.981 C 236.435 40.997,236.449 41.085,236.299 41.625 C 236.194 42.003,236.173 42.776,236.246 43.583 C 236.313 44.317,236.376 45.042,236.386 45.196 C 236.396 45.350,236.458 45.443,236.522 45.403 C 236.587 45.363,236.692 45.575,236.757 45.874 C 237.257 48.193,240.704 48.846,242.047 46.876 C 244.845 42.769,241.739 37.090,237.811 39.131 M276.540 38.889 C 275.110 39.408,274.260 40.575,274.178 42.135 C 274.172 42.255,274.100 42.312,274.018 42.261 C 273.936 42.211,273.945 42.487,274.038 42.876 C 274.130 43.265,274.225 43.846,274.248 44.167 C 274.272 44.487,274.366 44.938,274.459 45.167 C 274.551 45.396,274.617 45.626,274.605 45.679 C 274.593 45.731,274.715 45.905,274.875 46.065 C 275.035 46.226,275.167 46.464,275.167 46.595 C 275.167 46.726,275.279 46.833,275.417 46.833 C 275.554 46.833,275.667 46.946,275.667 47.083 C 275.667 47.222,275.815 47.333,276.000 47.333 C 276.183 47.333,276.333 47.410,276.333 47.504 C 276.333 47.690,276.931 47.956,277.535 48.039 C 277.745 48.068,277.997 48.142,278.095 48.204 C 278.407 48.400,279.343 48.193,280.067 47.768 C 282.150 46.547,282.538 41.835,280.722 39.824 C 279.794 38.797,277.937 38.382,276.540 38.889 M297.297 39.154 C 296.591 39.601,295.667 40.822,295.667 41.306 C 295.667 41.447,296.539 41.500,298.833 41.500 C 300.899 41.500,302.000 41.440,302.000 41.328 C 302.000 39.259,299.184 37.957,297.297 39.154 M84.125 39.958 C 85.065 39.987,86.602 39.987,87.542 39.958 C 88.481 39.928,87.712 39.904,85.833 39.904 C 83.954 39.904,83.185 39.928,84.125 39.958 M85.660 40.622 C 86.911 40.659,87.620 40.748,87.715 40.881 C 87.818 41.026,87.839 41.012,87.791 40.833 C 87.735 40.630,87.356 40.582,85.736 40.574 L 83.750 40.566 85.660 40.622 M305.000 42.250 C 305.000 42.662,304.943 43.000,304.874 43.000 C 304.804 43.000,304.774 42.662,304.807 42.250 C 304.840 41.837,304.897 41.500,304.933 41.500 C 304.970 41.500,305.000 41.837,305.000 42.250 M221.333 42.208 C 221.333 42.277,222.852 42.318,224.708 42.300 C 228.086 42.267,227.689 42.208,223.541 42.127 C 222.327 42.103,221.333 42.140,221.333 42.208 M285.284 43.042 C 285.245 43.248,285.212 43.079,285.212 42.667 C 285.212 42.254,285.245 42.085,285.284 42.292 C 285.324 42.498,285.324 42.835,285.284 43.042 M295.333 42.208 C 295.333 42.277,296.852 42.318,298.708 42.300 C 302.086 42.267,301.689 42.208,297.541 42.127 C 296.327 42.103,295.333 42.140,295.333 42.208 M266.124 47.708 C 266.095 48.648,266.070 47.879,266.070 46.000 C 266.070 44.121,266.095 43.352,266.124 44.292 C 266.154 45.231,266.154 46.769,266.124 47.708 M161.875 43.417 C 161.877 43.783,161.911 43.914,161.951 43.706 C 161.991 43.499,161.990 43.199,161.948 43.040 C 161.906 42.880,161.874 43.050,161.875 43.417 M74.208 59.958 C 80.785 59.982,91.548 59.982,98.125 59.958 C 104.702 59.934,99.321 59.914,86.167 59.914 C 73.012 59.914,67.631 59.934,74.208 59.958 M62.667 65.441 C 64.062 65.564,65.630 65.573,65.558 65.458 C 65.515 65.390,64.716 65.346,63.782 65.361 C 62.848 65.377,62.346 65.413,62.667 65.441 M72.909 65.544 C 72.864 65.660,72.849 67.853,72.875 70.419 L 72.922 75.083 72.961 70.297 L 73.000 65.512 74.708 65.458 L 76.417 65.404 74.703 65.368 C 73.450 65.343,72.968 65.390,72.909 65.544 M79.625 65.457 C 80.198 65.489,81.135 65.489,81.708 65.457 C 82.281 65.424,81.813 65.398,80.667 65.398 C 79.521 65.398,79.052 65.424,79.625 65.457 M91.298 65.457 C 91.875 65.490,92.775 65.489,93.298 65.456 C 93.822 65.423,93.350 65.397,92.250 65.397 C 91.150 65.397,90.722 65.424,91.298 65.457 M96.242 65.544 C 96.198 65.660,96.183 67.891,96.208 70.502 L 96.255 75.250 96.294 70.381 L 96.333 65.512 98.042 65.458 L 99.750 65.404 98.036 65.368 C 96.783 65.343,96.301 65.390,96.242 65.544 M107.548 65.457 C 108.078 65.490,108.903 65.490,109.381 65.456 C 109.859 65.422,109.425 65.395,108.417 65.396 C 107.408 65.396,107.017 65.424,107.548 65.457 M65.539 76.375 L 65.578 81.417 65.625 76.450 C 65.659 72.786,65.721 71.514,65.862 71.601 C 65.978 71.673,66.006 71.644,65.933 71.526 C 65.563 70.927,65.503 71.667,65.539 76.375 M110.045 75.000 C 110.045 75.412,110.078 75.581,110.118 75.375 C 110.157 75.169,110.157 74.831,110.118 74.625 C 110.078 74.419,110.045 74.587,110.045 75.000 " stroke="none" fill="#cbbbe3" fill-rule="evenodd"></path><path id="path2" d="M189.333 34.950 L 189.333 38.899 188.653 38.212 C 186.172 35.706,181.831 36.750,180.235 40.237 C 178.939 43.068,179.555 47.380,181.492 49.038 C 183.499 50.756,187.136 50.475,188.605 48.489 C 189.254 47.611,189.333 47.659,189.333 48.925 L 189.333 50.016 190.375 49.966 L 191.417 49.917 191.460 40.458 L 191.503 31.000 190.418 31.000 L 189.333 31.000 189.333 34.950 M233.500 40.508 L 233.500 50.016 234.542 49.966 L 235.583 49.917 235.667 49.011 L 235.750 48.105 236.207 48.706 C 237.689 50.656,241.180 50.675,243.317 48.745 C 245.806 46.496,246.013 40.812,243.695 38.327 C 241.577 36.055,237.523 36.455,235.885 39.097 C 235.728 39.350,235.684 38.535,235.676 35.208 L 235.667 31.000 234.583 31.000 L 233.500 31.000 233.500 40.508 M287.742 31.576 C 286.870 32.448,287.450 33.833,288.688 33.833 C 289.504 33.833,290.000 33.332,290.000 32.506 C 290.000 31.302,288.595 30.723,287.742 31.576 M137.667 41.008 L 137.667 50.016 138.708 49.966 L 139.750 49.917 139.795 45.958 L 139.839 42.000 142.985 42.000 L 146.130 42.000 146.190 41.458 C 146.223 41.160,146.226 40.710,146.197 40.458 L 146.145 40.000 142.989 40.000 L 139.833 40.000 139.833 37.000 L 139.833 34.000 143.250 34.000 L 146.667 34.000 146.667 33.000 L 146.667 32.000 142.167 32.000 L 137.667 32.000 137.667 41.008 M194.064 32.292 C 194.196 32.734,195.530 37.320,197.203 43.083 C 198.028 45.925,198.818 48.644,198.958 49.125 L 199.213 50.000 200.430 50.000 C 201.867 50.000,201.699 50.204,202.439 47.548 C 202.765 46.376,203.255 44.629,203.528 43.667 C 203.802 42.704,204.086 41.692,204.160 41.417 C 204.234 41.142,204.603 39.811,204.981 38.459 C 205.358 37.107,205.667 35.813,205.667 35.584 C 205.667 34.849,205.950 35.138,206.049 35.973 C 206.102 36.416,206.556 38.235,207.058 40.014 C 207.560 41.794,208.285 44.375,208.668 45.750 C 209.051 47.125,209.475 48.644,209.611 49.125 L 209.857 50.000 211.139 50.000 L 212.421 50.000 212.731 48.875 C 212.901 48.256,213.178 47.262,213.347 46.667 C 213.903 44.698,215.460 39.133,216.331 36.000 C 216.802 34.304,217.254 32.710,217.335 32.458 L 217.483 32.000 216.274 32.000 L 215.066 32.000 214.613 33.792 C 214.364 34.777,213.934 36.446,213.657 37.500 C 212.451 42.089,211.333 46.648,211.333 46.977 C 211.333 47.591,211.048 47.365,210.956 46.678 C 210.908 46.318,210.675 45.324,210.440 44.470 C 209.772 42.047,208.510 37.404,208.071 35.750 C 207.851 34.925,207.539 33.762,207.376 33.167 L 207.079 32.083 205.966 32.034 L 204.852 31.985 204.519 33.118 C 202.968 38.402,200.825 46.050,200.735 46.625 C 200.674 47.015,200.569 47.333,200.501 47.333 C 200.433 47.333,200.335 47.015,200.283 46.625 C 200.231 46.235,199.340 42.785,198.303 38.958 L 196.418 32.000 195.198 32.000 C 194.114 32.000,193.987 32.033,194.064 32.292 M249.000 40.991 L 249.000 50.016 250.042 49.966 L 251.083 49.917 251.128 46.561 L 251.173 43.205 253.378 43.139 C 257.611 43.013,259.831 41.160,259.974 37.634 C 260.142 33.490,258.339 32.130,252.542 32.029 L 249.000 31.967 249.000 40.991 M321.042 33.718 L 320.000 34.029 320.000 35.598 L 320.000 37.167 318.917 37.167 L 317.833 37.167 317.833 38.000 L 317.833 38.833 318.917 38.833 L 320.000 38.833 320.004 42.875 C 320.010 49.066,320.532 50.167,323.458 50.167 C 325.061 50.167,325.333 50.003,325.333 49.038 L 325.333 48.234 324.259 48.303 C 322.286 48.428,322.117 47.937,322.200 42.333 L 322.250 38.917 323.792 38.869 L 325.333 38.821 325.333 37.994 L 325.333 37.167 323.755 37.167 L 322.177 37.167 322.130 35.286 L 322.083 33.406 321.042 33.718 M256.012 34.458 C 258.298 35.616,258.342 39.188,256.087 40.582 C 255.320 41.056,255.166 41.087,253.222 41.142 L 251.167 41.201 251.167 37.600 L 251.167 34.000 253.137 34.000 C 254.956 34.000,255.176 34.035,256.012 34.458 M153.880 36.985 C 149.691 38.061,147.759 43.436,150.116 47.457 C 152.378 51.317,159.133 51.004,161.056 46.950 C 163.718 41.342,159.534 35.532,153.880 36.985 M169.144 36.980 C 163.433 38.191,162.501 47.152,167.826 49.650 C 169.226 50.307,172.150 50.288,173.532 49.615 C 178.079 47.396,178.188 39.525,173.700 37.400 C 172.679 36.916,170.423 36.708,169.144 36.980 M223.583 36.989 C 218.004 38.347,217.385 47.962,222.756 49.849 C 224.348 50.409,226.959 50.246,228.575 49.486 C 229.292 49.149,229.305 49.129,229.360 48.224 C 229.431 47.072,229.463 47.092,228.440 47.664 C 225.256 49.446,221.707 48.068,221.382 44.925 L 221.287 44.000 225.810 44.000 L 230.333 44.000 230.328 43.375 C 230.289 38.657,227.516 36.032,223.583 36.989 M268.333 36.979 C 266.986 37.322,265.667 38.548,265.667 39.457 C 265.667 39.572,265.592 39.667,265.500 39.667 C 265.404 39.667,265.333 39.139,265.333 38.417 L 265.333 37.167 264.248 37.167 L 263.163 37.167 263.206 43.542 L 263.250 49.917 264.276 49.966 L 265.303 50.015 265.377 45.966 C 265.459 41.444,265.534 41.054,266.536 39.916 C 267.437 38.892,268.507 38.612,269.708 39.087 C 269.968 39.190,270.000 39.084,270.000 38.122 C 270.000 37.045,269.998 37.041,269.479 36.938 C 268.915 36.825,268.943 36.824,268.333 36.979 M276.310 36.980 C 272.283 37.834,270.224 42.973,272.276 47.047 C 274.539 51.539,281.897 51.109,283.665 46.382 C 285.754 40.799,281.847 35.805,276.310 36.980 M297.583 36.990 C 292.017 38.351,291.398 47.966,296.756 49.849 C 298.354 50.411,300.959 50.246,302.590 49.479 L 303.333 49.130 303.333 48.147 L 303.333 47.164 302.433 47.672 C 299.274 49.455,295.706 48.064,295.382 44.925 L 295.287 44.000 299.810 44.000 L 304.333 44.000 304.328 43.375 C 304.289 38.658,301.513 36.029,297.583 36.990 M311.333 37.052 C 305.664 38.692,304.764 47.197,310.000 49.653 C 311.204 50.218,314.087 50.280,315.375 49.769 L 316.167 49.455 316.167 48.477 C 316.167 47.940,316.148 47.500,316.125 47.501 C 316.102 47.501,315.736 47.677,315.313 47.892 C 312.950 49.091,309.946 48.021,309.104 45.680 C 307.543 41.338,311.314 37.260,315.232 39.054 L 316.167 39.482 316.167 38.424 C 316.167 37.382,316.158 37.363,315.625 37.167 C 314.809 36.867,312.213 36.797,311.333 37.052 M287.466 44.625 C 287.421 51.371,287.389 52.135,287.123 52.620 C 286.407 53.931,285.224 54.414,283.873 53.949 L 283.167 53.706 283.167 54.678 L 283.167 55.651 283.792 55.825 C 285.634 56.336,287.671 55.538,288.646 53.923 C 289.613 52.320,289.667 51.808,289.667 44.132 L 289.667 37.167 288.591 37.167 L 287.516 37.167 287.466 44.625 M226.618 38.972 C 227.191 39.282,227.797 40.183,227.986 41.003 C 228.319 42.445,228.591 42.333,224.750 42.333 C 221.010 42.333,221.162 42.381,221.528 41.317 C 222.310 39.045,224.712 37.938,226.618 38.972 M300.618 38.972 C 301.191 39.282,301.797 40.183,301.986 41.003 C 302.319 42.445,302.591 42.333,298.750 42.333 C 294.934 42.333,295.112 42.402,295.614 41.128 C 296.477 38.942,298.754 37.961,300.618 38.972 M157.689 39.145 C 160.370 40.760,160.207 46.757,157.448 48.009 C 153.531 49.788,149.863 45.290,151.801 41.083 C 152.835 38.839,155.645 37.914,157.689 39.145 M173.027 39.258 C 175.640 41.094,175.354 46.739,172.583 48.018 C 168.400 49.949,164.706 44.586,167.349 40.419 C 168.475 38.643,171.323 38.060,173.027 39.258 M187.262 38.982 C 190.191 40.313,190.080 46.505,187.099 48.033 C 184.790 49.217,182.302 47.683,181.840 44.790 C 181.169 40.594,184.040 37.519,187.262 38.982 M240.880 38.891 C 243.692 40.068,243.913 45.730,241.228 47.778 C 239.794 48.872,237.356 48.422,236.257 46.860 C 235.680 46.040,235.420 42.649,235.829 41.283 C 236.412 39.337,239.009 38.108,240.880 38.891 M280.195 39.251 C 282.808 41.059,282.520 46.740,279.750 48.018 C 275.579 49.944,271.876 44.581,274.510 40.428 C 275.639 38.647,278.474 38.060,280.195 39.251 " stroke="none" fill="#7c7c7e" fill-rule="evenodd"></path><path id="path3" d="M62.167 35.919 L 62.167 59.833 86.083 59.833 L 110.000 59.833 110.000 35.916 L 110.000 11.998 86.083 12.001 L 62.167 12.004 62.167 35.919 M88.511 21.169 C 88.748 21.947,88.990 22.696,89.049 22.833 C 89.230 23.259,89.467 25.406,89.356 25.610 C 89.297 25.717,88.645 26.431,87.906 27.196 C 85.054 30.149,84.135 33.187,85.254 35.965 C 85.636 36.914,85.538 36.955,84.390 36.327 C 80.711 34.315,79.774 30.081,82.317 26.964 C 83.664 25.313,84.426 24.401,84.514 24.333 C 84.612 24.258,85.816 22.739,86.627 21.667 C 86.800 21.438,87.087 20.892,87.263 20.455 C 87.721 19.320,87.996 19.478,88.511 21.169 M93.218 24.094 C 93.601 25.138,93.708 25.720,93.727 26.857 C 93.755 28.623,93.709 28.686,91.511 29.868 C 89.807 30.784,89.513 31.000,88.375 32.167 C 87.669 32.890,87.000 33.949,87.000 34.343 C 87.000 34.448,86.894 34.769,86.765 35.058 C 86.635 35.347,86.480 35.874,86.420 36.230 C 86.287 37.016,86.166 36.899,85.673 35.511 C 84.463 32.098,85.305 30.343,90.550 25.353 C 90.899 25.022,91.458 24.281,91.794 23.707 C 92.543 22.426,92.612 22.445,93.218 24.094 M81.192 24.726 C 81.939 26.422,81.957 26.778,81.345 27.763 C 79.988 29.946,80.114 33.136,81.625 34.827 C 81.831 35.058,82.000 35.294,82.000 35.353 C 82.000 35.411,82.447 35.750,82.993 36.105 C 84.294 36.951,84.256 37.065,82.708 36.958 C 77.503 36.595,75.500 31.830,78.592 27.167 C 79.169 26.296,79.741 25.265,79.862 24.875 C 79.982 24.485,80.138 24.167,80.207 24.167 C 80.277 24.167,80.333 24.010,80.333 23.819 C 80.333 23.199,80.681 23.567,81.192 24.726 M96.667 26.640 C 96.667 27.610,95.764 31.985,95.526 32.166 C 95.466 32.212,95.254 32.595,95.056 33.017 C 93.998 35.266,91.668 36.793,88.873 37.068 C 87.266 37.226,86.805 37.097,86.939 36.524 C 87.396 34.558,88.016 33.377,89.205 32.198 C 90.384 31.030,90.471 30.968,92.260 30.006 C 93.898 29.126,95.882 27.468,96.093 26.803 C 96.188 26.504,96.667 26.368,96.667 26.640 M190.709 30.250 C 190.711 30.617,190.745 30.747,190.785 30.540 C 190.824 30.332,190.823 30.032,190.781 29.873 C 190.739 29.714,190.707 29.883,190.709 30.250 M191.000 30.250 C 191.000 30.657,191.075 30.833,191.250 30.833 C 191.469 30.833,191.500 31.972,191.500 40.083 L 191.500 49.333 191.917 49.333 L 192.333 49.333 192.333 39.500 L 192.333 29.667 191.667 29.667 C 191.016 29.667,191.000 29.681,191.000 30.250 M234.667 30.250 C 234.667 30.787,234.706 30.833,235.167 30.833 L 235.667 30.833 235.669 35.042 C 235.671 37.820,235.727 39.165,235.833 39.000 C 235.927 38.854,235.996 36.853,235.997 34.208 L 236.000 29.667 235.333 29.667 C 234.683 29.667,234.667 29.681,234.667 30.250 M288.580 30.671 C 288.337 30.939,288.360 30.968,288.902 31.070 C 289.234 31.132,289.629 31.362,289.819 31.604 C 290.230 32.126,290.469 32.014,290.371 31.346 C 290.241 30.461,289.144 30.047,288.580 30.671 M138.667 31.333 L 138.667 31.833 142.750 31.833 C 146.269 31.833,146.833 31.868,146.833 32.083 C 146.833 32.250,147.000 32.333,147.333 32.333 C 147.815 32.333,147.833 32.306,147.833 31.583 L 147.833 30.833 143.250 30.833 L 138.667 30.833 138.667 31.333 M195.381 31.325 C 195.521 31.695,195.689 31.830,196.060 31.867 L 196.552 31.917 197.945 37.083 C 198.711 39.925,199.527 42.930,199.758 43.762 C 199.989 44.593,200.223 45.549,200.277 45.887 C 200.332 46.224,200.438 46.500,200.512 46.500 C 200.764 46.500,200.864 45.066,200.664 44.322 C 200.554 43.917,200.438 43.472,200.406 43.334 C 200.373 43.196,200.228 42.650,200.083 42.120 C 199.939 41.590,199.873 41.065,199.937 40.953 C 200.001 40.841,199.988 40.810,199.908 40.883 C 199.783 40.997,199.244 39.313,198.640 36.917 C 198.547 36.550,198.404 36.100,198.322 35.917 C 198.240 35.733,198.101 35.283,198.014 34.917 C 197.927 34.550,197.735 33.816,197.588 33.286 C 197.441 32.756,197.372 32.239,197.436 32.136 C 197.503 32.027,197.477 31.995,197.374 32.058 C 197.265 32.126,197.153 31.910,197.083 31.501 L 196.971 30.833 196.083 30.833 L 195.196 30.833 195.381 31.325 M206.321 30.958 C 206.314 31.027,206.277 31.252,206.239 31.458 C 206.179 31.779,206.241 31.833,206.668 31.833 C 206.942 31.833,207.167 31.864,207.167 31.901 C 207.167 31.938,208.029 35.136,209.083 39.007 C 210.137 42.878,211.000 46.163,211.000 46.306 C 211.000 46.502,211.047 46.519,211.191 46.376 C 211.471 46.095,211.432 44.723,211.112 43.625 C 210.959 43.098,210.718 42.235,210.577 41.708 C 210.436 41.181,210.289 40.637,210.249 40.500 C 210.210 40.362,210.094 39.912,209.991 39.500 C 209.889 39.087,209.743 38.600,209.667 38.417 C 209.591 38.233,209.442 37.746,209.335 37.333 C 209.229 36.921,209.034 36.190,208.901 35.709 C 208.358 33.738,208.188 32.933,208.284 32.778 C 208.339 32.689,208.306 32.664,208.211 32.723 C 208.108 32.786,207.991 32.586,207.925 32.234 C 207.717 31.127,207.500 30.833,206.890 30.833 C 206.584 30.833,206.328 30.890,206.321 30.958 M216.438 31.208 C 216.281 31.795,216.295 31.811,216.985 31.865 L 217.636 31.917 217.088 33.833 C 216.786 34.887,216.225 36.875,215.840 38.250 C 215.456 39.625,214.690 42.349,214.139 44.304 C 213.587 46.259,213.175 47.897,213.223 47.945 C 213.313 48.035,213.664 46.914,213.666 46.532 C 213.666 46.412,213.723 46.348,213.792 46.391 C 213.860 46.433,213.933 46.236,213.954 45.953 C 213.988 45.480,214.345 44.176,214.934 42.369 C 215.062 41.976,215.167 41.520,215.167 41.355 C 215.167 41.190,215.223 40.999,215.292 40.931 C 215.360 40.862,215.423 40.756,215.430 40.694 C 215.459 40.456,215.710 39.532,216.049 38.417 C 216.243 37.775,216.411 37.212,216.421 37.167 C 216.431 37.121,216.541 36.746,216.665 36.333 C 216.789 35.921,216.900 35.508,216.913 35.417 C 216.925 35.325,216.981 35.137,217.036 35.000 C 217.091 34.862,217.213 34.450,217.307 34.083 C 217.721 32.469,217.928 31.817,218.003 31.891 C 218.047 31.935,218.102 31.715,218.125 31.402 L 218.166 30.833 217.353 30.833 C 216.650 30.833,216.525 30.884,216.438 31.208 M250.167 31.299 L 250.167 31.788 253.042 31.873 C 256.567 31.978,257.422 32.233,258.773 33.584 C 260.004 34.816,260.593 37.358,260.004 38.906 C 259.779 39.498,259.921 39.442,260.234 38.816 C 261.236 36.806,260.817 33.706,259.371 32.439 C 259.044 32.152,258.688 31.830,258.581 31.723 C 258.036 31.180,256.107 30.868,253.125 30.839 L 250.167 30.811 250.167 31.299 M321.793 32.429 C 321.709 32.514,321.327 32.616,320.958 32.654 C 320.890 32.661,320.833 32.887,320.833 33.156 L 320.833 33.646 321.542 33.441 C 322.126 33.273,322.259 33.158,322.303 32.785 C 322.352 32.363,322.062 32.161,321.793 32.429 M139.948 34.108 C 139.885 34.171,139.833 35.522,139.833 37.111 L 139.833 40.000 143.083 40.000 L 146.333 40.000 146.333 40.417 C 146.333 40.750,146.417 40.833,146.750 40.833 C 147.133 40.833,147.167 40.772,147.167 40.083 L 147.167 39.333 143.838 39.333 L 140.508 39.333 140.463 36.722 C 140.420 34.280,140.314 33.742,139.948 34.108 M251.205 37.542 L 251.250 41.083 253.000 41.042 C 254.799 41.000,255.688 40.850,255.781 40.574 C 255.813 40.479,255.009 40.437,253.750 40.468 L 251.667 40.519 251.667 37.260 C 251.667 34.454,251.631 34.000,251.413 34.000 C 251.193 34.000,251.166 34.464,251.205 37.542 M155.046 35.990 C 154.362 36.159,152.667 37.012,152.667 37.187 C 152.667 37.259,152.985 37.198,153.375 37.051 C 154.502 36.626,157.005 36.683,158.236 37.162 C 162.082 38.656,163.254 44.476,160.435 48.080 L 159.917 48.743 160.523 48.283 C 163.968 45.667,163.495 38.313,159.766 36.508 C 158.551 35.920,156.316 35.674,155.046 35.990 M170.250 35.982 C 169.975 36.056,169.475 36.234,169.139 36.378 C 168.802 36.521,168.472 36.588,168.404 36.527 C 168.336 36.467,168.331 36.505,168.392 36.613 C 168.458 36.727,168.365 36.854,168.169 36.916 C 167.984 36.975,167.833 37.089,167.833 37.171 C 167.833 37.252,168.152 37.198,168.542 37.051 C 170.713 36.232,173.762 36.877,175.352 38.491 C 177.677 40.851,177.767 45.810,175.530 48.234 L 175.083 48.717 175.641 48.317 C 178.441 46.306,178.911 40.521,176.498 37.773 C 175.948 37.147,174.500 36.052,174.500 36.262 C 174.500 36.324,174.385 36.278,174.244 36.161 C 173.941 35.910,171.004 35.778,170.250 35.982 M185.333 35.931 C 184.632 36.188,183.740 36.586,183.667 36.676 C 183.621 36.733,183.433 36.871,183.250 36.985 L 182.917 37.192 183.250 37.075 C 184.909 36.496,187.892 36.816,188.939 37.685 C 189.125 37.840,189.166 37.742,189.165 37.145 C 189.164 36.154,186.787 35.401,185.333 35.931 M224.459 36.003 C 223.806 36.168,222.434 36.989,222.575 37.130 C 222.619 37.175,222.902 37.108,223.203 36.982 C 226.325 35.673,230.016 38.134,230.292 41.708 C 230.372 42.756,230.405 42.833,230.772 42.833 C 231.597 42.833,231.117 39.324,230.088 37.840 C 229.610 37.150,228.920 36.500,228.665 36.500 C 228.574 36.500,228.500 36.413,228.500 36.306 C 228.500 36.199,228.451 36.160,228.390 36.221 C 228.330 36.281,228.181 36.248,228.060 36.147 C 227.767 35.904,225.250 35.804,224.459 36.003 M239.427 36.010 C 238.896 36.143,237.000 37.357,237.000 37.564 C 237.000 37.594,237.394 37.428,237.875 37.196 C 240.118 36.114,243.118 36.937,244.406 38.986 C 245.786 41.182,245.775 45.410,244.383 47.583 L 243.956 48.250 244.475 47.763 C 244.994 47.277,245.786 45.933,245.946 45.268 C 247.410 39.176,244.317 34.785,239.427 36.010 M269.100 35.952 C 268.559 36.036,267.540 36.633,267.164 37.086 C 266.927 37.372,266.940 37.373,267.450 37.109 C 268.303 36.668,269.969 36.729,270.161 37.208 C 270.244 37.415,270.317 37.518,270.323 37.438 C 270.329 37.358,270.446 37.386,270.583 37.500 C 270.800 37.680,270.833 37.594,270.833 36.854 C 270.833 36.153,270.781 36.000,270.542 35.998 C 270.381 35.996,270.100 35.969,269.917 35.936 C 269.733 35.903,269.366 35.910,269.100 35.952 M277.212 35.986 C 276.507 36.166,274.833 37.016,274.833 37.194 C 274.833 37.378,274.842 37.377,275.687 37.061 C 278.809 35.894,282.701 37.497,283.834 40.417 C 284.656 42.537,284.326 46.039,283.147 47.695 C 282.547 48.537,282.970 48.193,283.642 47.292 C 285.138 45.287,285.467 41.581,284.367 39.132 C 283.256 36.658,280.072 35.258,277.212 35.986 M297.941 36.007 C 297.227 36.187,296.560 36.612,295.628 37.482 C 294.882 38.179,294.925 38.366,295.697 37.783 C 299.141 35.184,303.959 37.384,304.292 41.708 C 304.339 42.327,304.443 42.833,304.522 42.833 C 304.791 42.833,304.668 40.597,304.342 39.523 C 303.911 38.106,302.754 36.500,302.165 36.500 C 302.074 36.500,302.000 36.413,302.000 36.306 C 302.000 36.199,301.951 36.160,301.890 36.221 C 301.830 36.281,301.681 36.248,301.560 36.147 C 301.264 35.902,298.747 35.804,297.941 36.007 M312.167 36.015 C 311.846 36.103,311.508 36.195,311.417 36.219 C 310.995 36.330,309.691 37.207,309.245 37.679 L 308.750 38.203 309.382 37.779 C 311.236 36.536,315.729 36.371,316.346 37.524 C 316.624 38.043,316.833 37.871,316.832 37.125 C 316.829 36.039,314.284 35.433,312.167 36.015 M264.500 36.500 C 264.500 36.944,264.556 37.000,265.000 37.000 L 265.500 37.000 265.503 38.208 C 265.504 39.050,265.554 39.341,265.667 39.167 C 265.756 39.029,265.829 38.260,265.831 37.458 L 265.833 36.000 265.167 36.000 C 264.537 36.000,264.500 36.028,264.500 36.500 M288.611 36.111 C 288.212 36.510,288.517 37.000,289.165 37.000 L 289.830 37.000 289.875 43.875 L 289.920 50.750 289.960 43.375 L 290.000 36.000 289.361 36.000 C 289.010 36.000,288.672 36.050,288.611 36.111 M318.500 36.490 C 318.500 36.984,318.523 37.000,319.261 37.000 C 319.993 37.000,320.020 36.982,319.969 36.542 C 319.883 35.792,318.500 35.744,318.500 36.490 M322.333 36.500 L 322.333 37.000 323.903 37.000 C 325.002 37.000,325.497 37.062,325.556 37.208 C 325.603 37.323,325.646 37.098,325.654 36.708 L 325.667 36.000 324.000 36.000 L 322.333 36.000 322.333 36.500 M205.667 36.350 C 205.667 36.616,202.794 46.883,202.163 48.875 C 202.083 49.127,202.080 49.333,202.156 49.333 C 202.232 49.333,202.335 49.165,202.383 48.958 C 202.432 48.752,202.591 48.190,202.736 47.708 C 202.881 47.227,203.112 46.458,203.250 46.000 C 203.387 45.542,203.612 44.792,203.750 44.333 C 203.887 43.875,204.112 43.125,204.250 42.667 C 204.387 42.208,204.612 41.458,204.750 41.000 C 205.998 36.839,206.076 36.509,205.856 36.290 C 205.715 36.148,205.667 36.163,205.667 36.350 M89.300 38.875 L 89.250 39.917 85.708 39.962 L 82.167 40.007 82.167 38.920 L 82.167 37.833 85.758 37.833 L 89.349 37.833 89.300 38.875 M87.861 40.917 C 87.831 41.100,87.699 42.112,87.569 43.167 C 87.439 44.221,87.182 46.283,86.997 47.750 C 86.813 49.217,86.568 51.167,86.453 52.083 C 86.221 53.930,86.130 54.167,85.653 54.167 C 85.186 54.167,85.084 53.768,84.759 50.667 C 84.410 47.335,84.057 44.071,83.843 42.179 C 83.639 40.386,83.520 40.482,85.888 40.537 C 87.811 40.581,87.914 40.601,87.861 40.917 M151.680 41.842 C 150.939 45.301,152.326 47.910,155.102 48.273 C 155.951 48.385,156.089 48.250,155.276 48.102 C 154.592 47.978,153.305 47.181,153.438 46.965 C 153.505 46.858,153.475 46.829,153.367 46.896 C 153.266 46.959,153.094 46.840,152.983 46.630 C 152.873 46.421,152.738 46.212,152.683 46.167 C 152.168 45.737,151.760 43.727,151.872 42.164 C 151.971 40.782,151.924 40.704,151.680 41.842 M235.827 41.881 C 235.077 45.231,236.365 47.966,238.833 48.267 C 239.669 48.369,240.001 48.248,239.240 48.120 C 237.158 47.768,235.811 45.260,236.063 42.208 C 236.181 40.779,236.099 40.665,235.827 41.881 M265.681 41.840 C 265.449 42.922,265.437 49.333,265.667 49.333 C 265.772 49.333,265.836 48.092,265.841 45.958 C 265.845 44.102,265.910 42.263,265.986 41.871 C 266.182 40.856,265.898 40.827,265.681 41.840 M221.500 41.833 C 221.500 42.155,221.611 42.167,224.750 42.167 C 227.889 42.167,228.000 42.155,228.000 41.833 C 228.000 41.511,227.889 41.500,224.750 41.500 C 221.611 41.500,221.500 41.511,221.500 41.833 M295.500 41.833 C 295.500 42.155,295.611 42.167,298.750 42.167 C 301.889 42.167,302.000 42.155,302.000 41.833 C 302.000 41.511,301.889 41.500,298.750 41.500 C 295.611 41.500,295.500 41.511,295.500 41.833 M166.762 42.396 C 166.295 45.113,167.531 47.632,169.584 48.149 C 170.808 48.458,171.174 48.339,170.125 47.973 C 169.283 47.679,168.579 47.150,167.905 46.302 C 167.664 45.999,167.312 44.966,167.414 44.863 C 167.460 44.818,167.406 44.671,167.295 44.537 C 167.184 44.404,167.050 43.684,166.998 42.939 L 166.902 41.583 166.762 42.396 M181.917 42.708 C 181.550 45.590,182.860 47.953,185.000 48.269 C 185.727 48.376,185.897 48.224,185.200 48.090 C 183.567 47.775,181.962 45.114,182.260 43.214 C 182.314 42.867,182.287 42.396,182.199 42.167 C 182.058 41.798,182.025 41.861,181.917 42.708 M178.212 42.667 C 178.212 43.079,178.245 43.248,178.284 43.042 C 178.324 42.835,178.324 42.498,178.284 42.292 C 178.245 42.085,178.212 42.254,178.212 42.667 M139.833 45.750 C 139.833 49.222,139.844 49.333,140.167 49.333 C 140.490 49.333,140.500 49.222,140.500 45.750 C 140.500 42.278,140.490 42.167,140.167 42.167 C 139.844 42.167,139.833 42.278,139.833 45.750 M273.905 43.750 C 273.979 45.924,274.837 47.463,276.279 48.011 C 277.151 48.343,277.209 48.140,276.378 47.663 C 275.898 47.388,275.375 46.958,275.215 46.706 C 275.055 46.455,274.885 46.212,274.837 46.167 C 274.603 45.943,274.389 45.378,274.415 45.049 C 274.430 44.847,274.386 44.717,274.317 44.760 C 274.248 44.803,274.144 44.406,274.086 43.877 C 273.907 42.232,273.851 42.193,273.905 43.750 M251.167 46.333 C 251.167 48.889,251.204 49.333,251.417 49.333 C 251.630 49.333,251.667 48.889,251.667 46.333 C 251.667 43.778,251.630 43.333,251.417 43.333 C 251.204 43.333,251.167 43.778,251.167 46.333 M221.504 44.792 C 221.514 46.589,222.919 48.067,224.791 48.250 C 225.400 48.310,225.468 48.296,225.083 48.192 C 223.516 47.766,222.134 46.313,221.899 44.845 C 221.763 43.994,221.499 43.958,221.504 44.792 M309.333 45.911 C 309.333 46.482,311.161 48.228,311.453 47.936 C 311.510 47.879,311.483 47.833,311.393 47.833 C 311.125 47.833,310.150 46.957,309.728 46.336 C 309.511 46.017,309.333 45.826,309.333 45.911 M296.125 46.752 C 296.433 47.334,297.891 48.331,298.111 48.111 C 298.156 48.067,298.025 47.978,297.822 47.913 C 297.618 47.848,297.113 47.485,296.700 47.106 C 296.286 46.727,296.028 46.568,296.125 46.752 M303.708 46.944 C 303.417 47.061,303.429 48.444,303.721 48.444 C 303.870 48.444,303.955 48.179,303.980 47.639 C 304.000 47.196,303.994 46.839,303.967 46.846 C 303.939 46.854,303.823 46.897,303.708 46.944 M229.792 47.232 C 229.441 47.499,229.379 48.667,229.717 48.667 C 230.103 48.667,230.333 48.281,230.333 47.633 C 230.333 46.952,230.246 46.887,229.792 47.232 M316.542 47.457 C 316.415 47.500,316.333 47.831,316.333 48.300 C 316.333 49.001,316.357 49.047,316.595 48.810 C 316.911 48.494,316.866 47.347,316.542 47.457 M188.708 48.494 C 188.252 49.073,188.232 49.233,188.645 49.012 C 188.816 48.920,188.988 48.877,189.027 48.915 C 189.065 48.954,189.114 48.764,189.134 48.493 C 189.180 47.898,189.178 47.898,188.708 48.494 M325.542 48.583 C 325.544 48.950,325.578 49.080,325.618 48.873 C 325.658 48.666,325.656 48.366,325.615 48.206 C 325.573 48.047,325.540 48.217,325.542 48.583 M212.917 48.667 C 212.853 48.955,212.836 49.225,212.879 49.268 C 212.921 49.310,213.004 49.105,213.063 48.813 C 213.201 48.118,213.067 47.983,212.917 48.667 M235.667 48.823 C 235.667 49.104,235.742 49.333,235.833 49.333 C 235.925 49.333,236.000 49.150,236.000 48.927 C 236.000 48.703,235.925 48.473,235.833 48.417 C 235.736 48.357,235.667 48.526,235.667 48.823 M62.288 73.375 L 62.326 81.250 63.913 81.298 L 65.500 81.345 65.500 76.256 C 65.500 73.457,65.546 71.167,65.603 71.167 C 65.767 71.167,66.654 72.221,66.760 72.542 C 66.813 72.702,66.918 72.833,66.995 72.833 C 67.071 72.833,67.282 73.077,67.464 73.375 C 67.646 73.673,67.916 74.067,68.065 74.250 C 68.214 74.433,68.708 75.071,69.163 75.667 C 69.617 76.262,70.086 76.865,70.203 77.005 C 70.321 77.146,70.638 77.559,70.908 77.922 C 71.178 78.286,71.441 78.621,71.492 78.667 C 71.755 78.903,73.333 81.064,73.333 81.189 C 73.333 81.268,74.007 81.333,74.830 81.333 L 76.327 81.333 76.327 73.417 L 76.326 65.500 74.663 65.500 L 73.000 65.500 73.000 70.222 C 73.000 75.802,73.046 75.650,71.864 74.000 C 71.568 73.587,71.067 72.912,70.750 72.500 C 70.433 72.087,69.933 71.412,69.639 71.000 C 69.346 70.587,69.056 70.212,68.995 70.167 C 68.934 70.121,68.517 69.589,68.067 68.985 C 67.618 68.381,66.843 67.350,66.345 66.693 L 65.440 65.500 63.845 65.500 L 62.250 65.500 62.288 73.375 M78.836 65.625 C 78.840 65.780,79.721 67.149,80.065 67.535 C 80.205 67.691,80.469 68.113,80.652 68.471 C 80.835 68.830,81.309 69.601,81.705 70.186 C 82.101 70.771,82.967 72.123,83.629 73.190 L 84.833 75.130 84.833 78.238 L 84.833 81.345 86.431 81.298 L 88.030 81.250 88.008 78.247 C 87.985 74.973,87.998 74.915,89.073 73.333 C 89.354 72.921,89.658 72.463,89.750 72.315 C 89.842 72.167,90.059 71.830,90.232 71.565 C 90.517 71.131,90.973 70.421,92.095 68.667 C 92.300 68.346,92.814 67.521,93.237 66.833 L 94.006 65.583 92.217 65.536 C 90.264 65.484,90.220 65.503,89.641 66.667 C 89.527 66.896,89.272 67.308,89.074 67.583 C 88.876 67.858,88.544 68.421,88.335 68.833 C 88.126 69.246,87.899 69.621,87.830 69.667 C 87.761 69.712,87.500 70.125,87.249 70.583 C 86.463 72.022,86.474 72.023,85.585 70.471 C 85.148 69.708,84.650 68.880,84.479 68.632 C 84.307 68.383,84.167 68.132,84.167 68.073 C 84.167 68.013,83.942 67.632,83.666 67.224 C 83.391 66.816,83.052 66.262,82.912 65.991 L 82.658 65.500 80.746 65.500 C 79.694 65.500,78.835 65.556,78.836 65.625 M96.333 70.721 C 96.333 77.784,96.910 79.565,99.555 80.661 C 100.029 80.857,100.597 81.108,100.818 81.217 C 101.323 81.469,105.197 81.482,105.521 81.233 C 105.647 81.137,106.091 80.932,106.508 80.778 C 109.362 79.725,110.000 77.870,110.000 70.632 L 110.000 65.500 108.342 65.500 L 106.685 65.500 106.671 70.697 C 106.659 75.747,106.648 75.913,106.287 76.557 C 105.198 78.505,102.658 79.019,100.967 77.634 C 99.738 76.626,99.665 76.224,99.666 70.458 L 99.667 65.500 98.000 65.500 L 96.333 65.500 96.333 70.721 " stroke="none" fill="#fbfbfb" fill-rule="evenodd"></path><path id="path4" d="M110.081 36.000 C 110.081 49.246,110.101 54.665,110.125 48.042 C 110.149 41.419,110.149 30.581,110.125 23.958 C 110.101 17.335,110.081 22.754,110.081 36.000 M80.212 31.333 C 80.212 31.746,80.245 31.915,80.284 31.708 C 80.324 31.502,80.324 31.165,80.284 30.958 C 80.245 30.752,80.212 30.921,80.212 31.333 M189.625 30.951 C 189.831 30.991,190.169 30.991,190.375 30.951 C 190.581 30.911,190.412 30.879,190.000 30.879 C 189.588 30.879,189.419 30.911,189.625 30.951 M233.708 30.948 C 233.869 30.990,234.131 30.990,234.292 30.948 C 234.452 30.906,234.321 30.872,234.000 30.872 C 233.679 30.872,233.548 30.906,233.708 30.948 M137.875 31.948 C 138.035 31.990,138.298 31.990,138.458 31.948 C 138.619 31.906,138.487 31.872,138.167 31.872 C 137.846 31.872,137.715 31.906,137.875 31.948 M194.292 31.951 C 194.498 31.991,194.835 31.991,195.042 31.951 C 195.248 31.911,195.079 31.879,194.667 31.879 C 194.254 31.879,194.085 31.911,194.292 31.951 M205.042 31.948 C 205.202 31.990,205.465 31.990,205.625 31.948 C 205.785 31.906,205.654 31.872,205.333 31.872 C 205.012 31.872,204.881 31.906,205.042 31.948 M146.720 33.000 C 146.720 33.596,146.750 33.840,146.787 33.542 C 146.824 33.244,146.824 32.756,146.787 32.458 C 146.750 32.160,146.720 32.404,146.720 33.000 M290.076 42.917 C 290.076 46.767,290.098 48.318,290.125 46.364 C 290.152 44.410,290.151 41.260,290.125 39.364 C 290.098 37.468,290.076 39.067,290.076 42.917 M263.460 37.118 C 263.668 37.158,263.968 37.156,264.127 37.115 C 264.286 37.073,264.117 37.040,263.750 37.042 C 263.383 37.044,263.253 37.078,263.460 37.118 M265.390 38.417 C 265.391 39.150,265.420 39.429,265.456 39.037 C 265.491 38.645,265.490 38.045,265.454 37.704 C 265.419 37.363,265.390 37.683,265.390 38.417 M289.742 43.500 C 289.742 47.029,289.764 48.473,289.791 46.708 C 289.818 44.944,289.818 42.056,289.791 40.292 C 289.764 38.527,289.742 39.971,289.742 43.500 M325.333 37.994 L 325.333 38.821 323.792 38.876 L 322.250 38.931 323.875 38.965 L 325.500 39.000 325.500 38.083 C 325.500 37.579,325.462 37.167,325.417 37.167 C 325.371 37.167,325.333 37.539,325.333 37.994 M316.221 38.583 C 316.222 39.225,316.252 39.467,316.288 39.121 C 316.324 38.775,316.324 38.250,316.287 37.955 C 316.250 37.659,316.221 37.942,316.221 38.583 M82.401 38.063 C 82.353 38.189,82.342 38.658,82.377 39.105 L 82.440 39.917 82.470 38.962 L 82.500 38.007 85.792 37.958 L 89.083 37.909 85.786 37.871 C 83.114 37.841,82.473 37.877,82.401 38.063 M268.208 38.948 C 268.369 38.990,268.631 38.990,268.792 38.948 C 268.952 38.906,268.821 38.872,268.500 38.872 C 268.179 38.872,268.048 38.906,268.208 38.948 M318.288 38.954 C 318.584 38.990,319.109 38.991,319.455 38.955 C 319.800 38.919,319.558 38.889,318.917 38.888 C 318.275 38.887,317.992 38.917,318.288 38.954 M146.189 41.454 L 146.167 41.992 143.292 42.042 L 140.417 42.092 143.297 42.129 C 146.393 42.169,146.448 42.154,146.286 41.304 C 146.229 41.007,146.207 41.042,146.189 41.454 M246.375 42.250 C 246.377 42.617,246.411 42.747,246.451 42.540 C 246.491 42.332,246.490 42.032,246.448 41.873 C 246.406 41.714,246.374 41.883,246.375 42.250 M265.405 46.333 C 265.405 48.396,265.429 49.240,265.458 48.208 C 265.487 47.177,265.487 45.490,265.458 44.458 C 265.429 43.427,265.405 44.271,265.405 46.333 M273.718 43.583 C 273.719 44.133,273.750 44.338,273.787 44.039 C 273.825 43.739,273.824 43.289,273.786 43.039 C 273.748 42.788,273.717 43.033,273.718 43.583 M181.705 43.667 C 181.705 43.987,181.740 44.119,181.782 43.958 C 181.823 43.798,181.823 43.535,181.782 43.375 C 181.740 43.215,181.705 43.346,181.705 43.667 M223.865 44.124 C 225.029 44.153,226.979 44.153,228.198 44.125 C 229.418 44.096,228.467 44.073,226.083 44.073 C 223.700 44.073,222.702 44.096,223.865 44.124 M297.542 44.125 C 298.802 44.153,300.865 44.153,302.125 44.125 C 303.385 44.096,302.354 44.073,299.833 44.073 C 297.313 44.073,296.281 44.096,297.542 44.125 M325.331 48.951 C 325.286 49.519,325.311 49.924,325.385 49.849 C 325.459 49.775,325.495 49.310,325.466 48.815 L 325.412 47.917 325.331 48.951 M155.127 50.285 C 155.334 50.324,155.634 50.323,155.794 50.281 C 155.953 50.239,155.783 50.207,155.417 50.209 C 155.050 50.211,154.920 50.245,155.127 50.285 M170.294 50.285 C 170.501 50.324,170.801 50.323,170.960 50.281 C 171.120 50.239,170.950 50.207,170.583 50.209 C 170.217 50.211,170.086 50.245,170.294 50.285 M184.460 50.285 C 184.668 50.324,184.968 50.323,185.127 50.281 C 185.286 50.239,185.117 50.207,184.750 50.209 C 184.383 50.211,184.253 50.245,184.460 50.285 M224.627 50.285 C 224.834 50.324,225.134 50.323,225.294 50.281 C 225.453 50.239,225.283 50.207,224.917 50.209 C 224.550 50.211,224.420 50.245,224.627 50.285 M239.208 50.282 C 239.369 50.323,239.631 50.323,239.792 50.282 C 239.952 50.240,239.821 50.205,239.500 50.205 C 239.179 50.205,239.048 50.240,239.208 50.282 M277.460 50.285 C 277.668 50.324,277.968 50.323,278.127 50.281 C 278.286 50.239,278.117 50.207,277.750 50.209 C 277.383 50.211,277.253 50.245,277.460 50.285 M298.627 50.285 C 298.834 50.324,299.134 50.323,299.294 50.281 C 299.453 50.239,299.283 50.207,298.917 50.209 C 298.550 50.211,298.420 50.245,298.627 50.285 M312.460 50.285 C 312.668 50.324,312.968 50.323,313.127 50.281 C 313.286 50.239,313.117 50.207,312.750 50.209 C 312.383 50.211,312.253 50.245,312.460 50.285 M367.239 60.417 C 367.239 62.617,367.262 63.494,367.291 62.365 C 367.320 61.237,367.320 59.437,367.291 58.365 C 367.262 57.294,367.238 58.217,367.239 60.417 M106.574 70.417 C 106.574 73.167,106.597 74.315,106.625 72.969 C 106.653 71.622,106.653 69.372,106.625 67.969 C 106.597 66.565,106.574 67.667,106.574 70.417 M245.079 69.625 L 354.825 69.667 354.877 72.208 L 354.929 74.750 354.923 72.167 L 354.917 69.583 245.125 69.583 L 135.333 69.583 245.079 69.625 M107.906 80.042 L 107.417 80.583 107.958 80.094 C 108.256 79.825,108.500 79.581,108.500 79.552 C 108.500 79.423,108.362 79.537,107.906 80.042 M186.639 79.958 C 214.902 79.982,261.102 79.982,289.305 79.958 C 317.508 79.935,294.383 79.916,237.917 79.916 C 181.450 79.916,158.375 79.935,186.639 79.958 M102.792 81.618 C 102.998 81.657,103.335 81.657,103.542 81.618 C 103.748 81.578,103.579 81.545,103.167 81.545 C 102.754 81.545,102.585 81.578,102.792 81.618 " stroke="none" fill="#9d76ab" fill-rule="evenodd"></path><path id="path5" d="M234.528 30.292 L 234.500 31.000 235.125 30.973 C 235.727 30.948,235.730 30.944,235.218 30.880 C 234.742 30.821,234.679 30.748,234.621 30.198 L 234.556 29.583 234.528 30.292 M189.239 34.833 C 189.239 37.079,189.262 37.998,189.291 36.875 C 189.320 35.752,189.320 33.915,189.291 32.792 C 189.262 31.669,189.239 32.587,189.239 34.833 M233.411 40.417 C 233.411 45.733,233.432 47.932,233.458 45.304 C 233.484 42.675,233.484 38.325,233.458 35.637 C 233.433 32.949,233.411 35.100,233.411 40.417 M249.988 31.375 L 249.900 32.000 252.075 31.964 L 254.250 31.928 252.219 31.876 L 250.187 31.823 250.132 31.287 L 250.077 30.750 249.988 31.375 M205.945 31.736 C 205.863 31.950,205.962 31.996,206.464 31.977 C 206.926 31.960,206.978 31.935,206.667 31.877 C 206.438 31.835,206.204 31.726,206.148 31.636 C 206.091 31.544,206.002 31.589,205.945 31.736 M216.112 31.736 C 216.028 31.953,216.135 31.996,216.714 31.975 C 217.283 31.955,217.322 31.936,216.917 31.877 C 216.643 31.836,216.372 31.729,216.315 31.638 C 216.257 31.544,216.169 31.586,216.112 31.736 M195.333 31.862 C 195.333 31.938,195.558 32.000,195.833 32.000 C 196.108 32.000,196.333 31.971,196.333 31.936 C 196.333 31.900,196.108 31.838,195.833 31.798 C 195.558 31.757,195.333 31.786,195.333 31.862 M137.578 40.917 C 137.578 45.958,137.599 48.045,137.625 45.553 C 137.651 43.062,137.651 38.937,137.625 36.387 C 137.599 33.837,137.578 35.875,137.578 40.917 M140.625 31.958 C 141.748 31.987,143.585 31.987,144.708 31.958 C 145.831 31.929,144.912 31.905,142.667 31.905 C 140.421 31.905,139.502 31.929,140.625 31.958 M248.911 40.917 C 248.911 45.958,248.932 48.045,248.958 45.553 C 248.984 43.062,248.984 38.937,248.958 36.387 C 248.932 33.837,248.911 35.875,248.911 40.917 M320.667 33.250 C 320.667 33.571,320.727 33.833,320.800 33.833 C 320.873 33.833,320.902 33.571,320.865 33.250 C 320.828 32.929,320.768 32.667,320.732 32.667 C 320.696 32.667,320.667 32.929,320.667 33.250 M318.360 36.542 L 318.333 37.167 319.208 37.137 L 320.083 37.107 319.302 37.045 C 318.563 36.986,318.516 36.953,318.453 36.450 C 318.389 35.936,318.386 35.939,318.360 36.542 M264.542 37.115 C 264.702 37.157,264.965 37.157,265.125 37.115 C 265.285 37.073,265.154 37.039,264.833 37.039 C 264.512 37.039,264.381 37.073,264.542 37.115 M288.794 37.118 C 289.001 37.158,289.301 37.156,289.460 37.115 C 289.620 37.073,289.450 37.040,289.083 37.042 C 288.717 37.044,288.586 37.078,288.794 37.118 M323.042 37.123 C 323.477 37.157,324.190 37.157,324.625 37.123 C 325.060 37.088,324.704 37.060,323.833 37.060 C 322.962 37.060,322.606 37.088,323.042 37.123 M317.717 38.000 C 317.717 38.504,317.748 38.710,317.786 38.458 C 317.824 38.206,317.824 37.794,317.786 37.542 C 317.748 37.290,317.717 37.496,317.717 38.000 M181.409 38.375 L 180.750 39.083 181.458 38.425 C 181.848 38.062,182.167 37.743,182.167 37.716 C 182.167 37.590,182.022 37.716,181.409 38.375 M294.315 39.042 C 294.119 39.415,294.120 39.415,294.476 39.099 C 294.873 38.746,294.909 38.667,294.673 38.667 C 294.584 38.667,294.423 38.835,294.315 39.042 M187.667 39.219 C 187.667 39.248,187.910 39.491,188.208 39.760 L 188.750 40.250 188.260 39.708 C 187.804 39.203,187.667 39.090,187.667 39.219 M189.228 43.250 C 189.228 44.167,189.256 44.520,189.290 44.036 C 189.324 43.552,189.323 42.802,189.289 42.369 C 189.255 41.937,189.227 42.333,189.228 43.250 M174.720 43.500 C 174.720 44.096,174.750 44.340,174.787 44.042 C 174.824 43.744,174.824 43.256,174.787 42.958 C 174.750 42.660,174.720 42.904,174.720 43.500 M243.048 43.250 C 243.049 43.708,243.081 43.876,243.120 43.623 C 243.158 43.369,243.157 42.994,243.117 42.789 C 243.078 42.584,243.046 42.792,243.048 43.250 M281.888 43.583 C 281.889 44.225,281.919 44.467,281.955 44.121 C 281.991 43.775,281.990 43.250,281.954 42.955 C 281.917 42.659,281.887 42.942,281.888 43.583 M149.052 43.583 C 149.053 44.133,149.084 44.338,149.121 44.039 C 149.158 43.739,149.157 43.289,149.119 43.039 C 149.081 42.788,149.051 43.033,149.052 43.583 M159.545 43.500 C 159.545 43.913,159.578 44.081,159.618 43.875 C 159.657 43.669,159.657 43.331,159.618 43.125 C 159.578 42.919,159.545 43.087,159.545 43.500 M187.906 47.375 L 187.417 47.917 187.958 47.427 C 188.463 46.971,188.577 46.833,188.448 46.833 C 188.419 46.833,188.175 47.077,187.906 47.375 M189.221 48.917 C 189.222 49.558,189.252 49.800,189.288 49.455 C 189.324 49.109,189.324 48.584,189.287 48.288 C 189.250 47.992,189.221 48.275,189.221 48.917 M225.208 48.448 C 225.369 48.490,225.631 48.490,225.792 48.448 C 225.952 48.406,225.821 48.372,225.500 48.372 C 225.179 48.372,225.048 48.406,225.208 48.448 M299.208 48.448 C 299.369 48.490,299.631 48.490,299.792 48.448 C 299.952 48.406,299.821 48.372,299.500 48.372 C 299.179 48.372,299.048 48.406,299.208 48.448 M283.053 54.667 C 283.053 55.262,283.084 55.506,283.121 55.208 C 283.158 54.910,283.158 54.423,283.121 54.125 C 283.084 53.827,283.053 54.071,283.053 54.667 " stroke="none" fill="#b39a8f" fill-rule="evenodd"></path><path id="path6" d="M62.077 12.042 C 62.033 12.156,62.017 23.012,62.041 36.167 L 62.084 60.083 62.126 36.042 L 62.167 12.001 86.208 11.958 L 110.250 11.916 86.203 11.874 C 67.089 11.842,62.140 11.876,62.077 12.042 M93.553 27.000 C 93.553 27.596,93.584 27.840,93.621 27.542 C 93.658 27.244,93.658 26.756,93.621 26.458 C 93.584 26.160,93.553 26.404,93.553 27.000 M80.101 30.430 C 79.962 30.794,79.979 31.875,80.128 32.108 C 80.195 32.214,80.251 31.820,80.253 31.233 C 80.257 30.072,80.251 30.041,80.101 30.430 M83.042 36.948 C 83.202 36.990,83.465 36.990,83.625 36.948 C 83.785 36.906,83.654 36.872,83.333 36.872 C 83.012 36.872,82.881 36.906,83.042 36.948 M99.667 70.161 C 99.712 72.899,99.787 75.177,99.833 75.223 C 99.879 75.269,99.894 73.081,99.866 70.361 C 99.838 67.642,99.763 65.364,99.699 65.300 C 99.635 65.235,99.621 67.423,99.667 70.161 M62.081 73.333 L 62.083 81.417 63.875 81.426 L 65.667 81.434 63.919 81.378 L 62.170 81.322 62.124 73.286 L 62.078 65.250 62.081 73.333 M76.373 73.285 L 76.333 81.321 74.792 81.376 L 73.250 81.431 74.797 81.465 C 75.907 81.490,76.366 81.441,76.424 81.292 C 76.468 81.177,76.483 77.521,76.458 73.167 L 76.413 65.250 76.373 73.285 M96.074 70.250 C 96.074 72.908,96.097 73.972,96.125 72.615 C 96.153 71.257,96.153 69.082,96.125 67.781 C 96.096 66.481,96.073 67.592,96.074 70.250 M110.240 69.917 C 110.240 72.392,110.263 73.427,110.291 72.218 C 110.320 71.009,110.320 68.984,110.291 67.718 C 110.263 66.452,110.240 67.442,110.240 69.917 M190.111 74.792 C 220.285 74.815,269.710 74.815,299.945 74.792 C 330.179 74.768,305.492 74.749,245.083 74.749 C 184.675 74.749,159.938 74.768,190.111 74.792 M88.204 78.125 L 88.167 81.333 86.431 81.333 C 85.411 81.333,84.659 81.263,84.610 81.162 C 84.563 81.069,84.544 81.087,84.568 81.204 C 84.630 81.516,88.139 81.599,88.257 81.292 C 88.303 81.171,88.319 79.688,88.292 77.995 L 88.242 74.917 88.204 78.125 M84.567 78.250 C 84.568 79.717,84.593 80.294,84.624 79.534 C 84.655 78.773,84.655 77.573,84.624 76.867 C 84.593 76.161,84.567 76.783,84.567 78.250 M102.792 78.284 C 102.998 78.324,103.335 78.324,103.542 78.284 C 103.748 78.245,103.579 78.212,103.167 78.212 C 102.754 78.212,102.585 78.245,102.792 78.284 M340.562 81.750 C 340.563 82.758,340.590 83.149,340.623 82.619 C 340.657 82.088,340.656 81.263,340.623 80.786 C 340.589 80.308,340.562 80.742,340.562 81.750 " stroke="none" fill="#8c50ad" fill-rule="evenodd"></path><path id="path7" d="M192.412 39.500 C 192.412 44.954,192.433 47.185,192.458 44.458 C 192.484 41.731,192.484 37.269,192.458 34.542 C 192.433 31.815,192.412 34.046,192.412 39.500 M322.293 33.000 C 322.099 34.440,322.156 37.334,322.358 36.281 C 322.442 35.839,322.490 34.714,322.464 33.781 C 322.421 32.227,322.406 32.161,322.293 33.000 M251.737 37.250 C 251.737 39.083,251.761 39.856,251.791 38.967 C 251.821 38.078,251.821 36.578,251.791 35.634 C 251.761 34.689,251.737 35.417,251.737 37.250 M260.875 36.083 C 260.877 36.450,260.911 36.580,260.951 36.373 C 260.991 36.166,260.990 35.866,260.948 35.706 C 260.906 35.547,260.874 35.717,260.875 36.083 M270.883 36.833 C 270.883 37.337,270.915 37.544,270.953 37.292 C 270.991 37.040,270.991 36.627,270.953 36.375 C 270.915 36.123,270.883 36.329,270.883 36.833 M325.714 36.750 C 325.716 37.208,325.748 37.376,325.786 37.123 C 325.825 36.869,325.824 36.494,325.784 36.289 C 325.744 36.084,325.713 36.292,325.714 36.750 M316.885 37.250 C 316.886 37.800,316.917 38.005,316.954 37.705 C 316.991 37.406,316.990 36.956,316.952 36.705 C 316.914 36.455,316.884 36.700,316.885 37.250 M270.055 38.250 C 270.055 38.892,270.086 39.134,270.122 38.788 C 270.158 38.442,270.157 37.917,270.120 37.621 C 270.083 37.325,270.054 37.608,270.055 38.250 M322.167 42.740 C 322.167 45.054,322.230 46.520,322.333 46.583 C 322.443 46.651,322.500 45.363,322.500 42.843 C 322.500 40.392,322.440 39.000,322.333 39.000 C 322.227 39.000,322.167 40.358,322.167 42.740 M147.214 40.083 C 147.216 40.542,147.248 40.709,147.286 40.456 C 147.325 40.203,147.324 39.828,147.284 39.623 C 147.244 39.418,147.213 39.625,147.214 40.083 M162.883 42.667 C 162.883 43.171,162.915 43.377,162.953 43.125 C 162.991 42.873,162.991 42.460,162.953 42.208 C 162.915 41.956,162.883 42.162,162.883 42.667 M284.218 43.417 C 284.219 43.967,284.250 44.172,284.287 43.872 C 284.325 43.572,284.324 43.122,284.286 42.872 C 284.248 42.622,284.217 42.867,284.218 43.417 M308.872 43.000 C 308.872 43.321,308.906 43.452,308.948 43.292 C 308.990 43.131,308.990 42.869,308.948 42.708 C 308.906 42.548,308.872 42.679,308.872 43.000 M151.385 43.583 C 151.386 44.133,151.417 44.338,151.454 44.039 C 151.491 43.739,151.490 43.289,151.452 43.039 C 151.414 42.788,151.384 43.033,151.385 43.583 M177.048 43.417 C 177.049 43.875,177.081 44.043,177.120 43.789 C 177.158 43.536,177.157 43.161,177.117 42.956 C 177.078 42.751,177.046 42.958,177.048 43.417 M245.375 43.250 C 245.377 43.617,245.411 43.747,245.451 43.540 C 245.491 43.332,245.490 43.032,245.448 42.873 C 245.406 42.714,245.374 42.883,245.375 43.250 M230.375 43.417 C 230.377 43.783,230.411 43.914,230.451 43.706 C 230.491 43.499,230.490 43.199,230.448 43.040 C 230.406 42.880,230.374 43.050,230.375 43.417 M304.375 43.417 C 304.377 43.783,304.411 43.914,304.451 43.706 C 304.491 43.499,304.490 43.199,304.448 43.040 C 304.406 42.880,304.374 43.050,304.375 43.417 M166.542 43.583 C 166.544 43.950,166.578 44.080,166.618 43.873 C 166.658 43.666,166.656 43.366,166.615 43.206 C 166.573 43.047,166.540 43.217,166.542 43.583 M251.736 46.250 C 251.736 47.992,251.761 48.682,251.791 47.783 C 251.821 46.884,251.821 45.459,251.791 44.616 C 251.761 43.773,251.736 44.508,251.736 46.250 M303.381 47.917 C 303.382 48.375,303.415 48.543,303.453 48.289 C 303.491 48.036,303.490 47.661,303.451 47.456 C 303.411 47.251,303.380 47.458,303.381 47.917 M316.881 47.917 C 316.882 48.375,316.915 48.543,316.953 48.289 C 316.991 48.036,316.990 47.661,316.951 47.456 C 316.911 47.251,316.880 47.458,316.881 47.917 M229.379 48.167 C 229.379 48.579,229.411 48.748,229.451 48.542 C 229.491 48.335,229.491 47.998,229.451 47.792 C 229.411 47.585,229.379 47.754,229.379 48.167 M316.212 48.333 C 316.212 48.746,316.245 48.915,316.284 48.708 C 316.324 48.502,316.324 48.165,316.284 47.958 C 316.245 47.752,316.212 47.921,316.212 48.333 M325.714 48.583 C 325.716 49.042,325.748 49.209,325.786 48.956 C 325.825 48.703,325.824 48.328,325.784 48.123 C 325.744 47.918,325.713 48.125,325.714 48.583 " stroke="none" fill="#94bde3" fill-rule="evenodd"></path><path id="path8" d="M93.714 27.083 C 93.716 27.542,93.748 27.709,93.786 27.456 C 93.825 27.203,93.824 26.828,93.784 26.623 C 93.744 26.418,93.713 26.625,93.714 27.083 M95.240 27.875 L 94.750 28.417 95.292 27.927 C 95.590 27.658,95.833 27.414,95.833 27.385 C 95.833 27.257,95.696 27.370,95.240 27.875 M192.578 39.500 C 192.578 44.954,192.599 47.185,192.625 44.458 C 192.651 41.731,192.651 37.269,192.625 34.542 C 192.599 31.815,192.578 34.046,192.578 39.500 M236.073 34.167 C 236.073 36.688,236.096 37.719,236.125 36.458 C 236.153 35.198,236.153 33.135,236.125 31.875 C 236.096 30.615,236.073 31.646,236.073 34.167 M249.872 31.333 C 249.872 31.654,249.906 31.785,249.948 31.625 C 249.990 31.465,249.990 31.202,249.948 31.042 C 249.906 30.881,249.872 31.012,249.872 31.333 M264.372 36.500 C 264.372 36.821,264.406 36.952,264.448 36.792 C 264.490 36.631,264.490 36.369,264.448 36.208 C 264.406 36.048,264.372 36.179,264.372 36.500 M266.056 37.167 C 266.056 37.854,266.085 38.135,266.121 37.792 C 266.157 37.448,266.157 36.885,266.121 36.542 C 266.085 36.198,266.056 36.479,266.056 37.167 M325.881 36.750 C 325.882 37.208,325.915 37.376,325.953 37.123 C 325.991 36.869,325.990 36.494,325.951 36.289 C 325.911 36.084,325.880 36.292,325.881 36.750 M87.625 37.118 C 87.831 37.157,88.169 37.157,88.375 37.118 C 88.581 37.078,88.412 37.045,88.000 37.045 C 87.587 37.045,87.419 37.078,87.625 37.118 M221.979 37.444 C 221.770 37.698,221.786 37.703,222.167 37.505 C 222.725 37.214,222.767 37.167,222.465 37.167 C 222.323 37.167,222.105 37.291,221.979 37.444 M89.220 38.833 C 89.220 39.429,89.250 39.673,89.287 39.375 C 89.324 39.077,89.324 38.590,89.287 38.292 C 89.250 37.994,89.220 38.237,89.220 38.833 M294.741 38.319 C 294.793 38.403,294.741 38.510,294.626 38.556 C 294.496 38.609,294.488 38.645,294.605 38.654 C 294.708 38.661,294.886 38.554,295.000 38.417 C 295.170 38.211,295.157 38.167,294.927 38.167 C 294.773 38.167,294.689 38.235,294.741 38.319 M147.381 40.083 C 147.382 40.542,147.415 40.709,147.453 40.456 C 147.491 40.203,147.490 39.828,147.451 39.623 C 147.411 39.418,147.380 39.625,147.381 40.083 M255.893 40.372 C 255.732 40.632,255.929 40.672,256.243 40.443 C 256.513 40.245,256.515 40.222,256.265 40.222 C 256.111 40.222,255.944 40.290,255.893 40.372 M182.116 41.622 C 182.075 41.693,182.095 41.896,182.160 42.074 C 182.272 42.383,182.282 42.381,182.373 42.033 C 182.465 41.680,182.266 41.362,182.116 41.622 M231.381 42.250 C 231.382 42.708,231.415 42.876,231.453 42.623 C 231.491 42.369,231.490 41.994,231.451 41.789 C 231.411 41.584,231.380 41.792,231.381 42.250 M178.053 42.667 C 178.053 43.262,178.084 43.506,178.121 43.208 C 178.158 42.910,178.158 42.423,178.121 42.125 C 178.084 41.827,178.053 42.071,178.053 42.667 M236.055 42.917 C 236.055 43.558,236.086 43.800,236.122 43.455 C 236.158 43.109,236.157 42.584,236.120 42.288 C 236.083 41.992,236.054 42.275,236.055 42.917 M304.872 42.333 C 304.872 42.654,304.906 42.785,304.948 42.625 C 304.990 42.465,304.990 42.202,304.948 42.042 C 304.906 41.881,304.872 42.012,304.872 42.333 M163.045 42.667 C 163.045 43.079,163.078 43.248,163.118 43.042 C 163.157 42.835,163.157 42.498,163.118 42.292 C 163.078 42.085,163.045 42.254,163.045 42.667 M285.212 42.667 C 285.212 43.079,285.245 43.248,285.284 43.042 C 285.324 42.835,285.324 42.498,285.284 42.292 C 285.245 42.085,285.212 42.254,285.212 42.667 M83.872 42.667 C 83.872 42.987,83.906 43.119,83.948 42.958 C 83.990 42.798,83.990 42.535,83.948 42.375 C 83.906 42.215,83.872 42.346,83.872 42.667 M266.070 46.000 C 266.070 47.879,266.095 48.648,266.124 47.708 C 266.154 46.769,266.154 45.231,266.124 44.292 C 266.095 43.352,266.070 44.121,266.070 46.000 M182.178 43.708 C 182.172 43.960,182.242 44.167,182.333 44.167 C 182.529 44.167,182.529 44.039,182.333 43.583 C 182.206 43.288,182.189 43.302,182.178 43.708 M230.379 47.500 C 230.379 47.913,230.411 48.081,230.451 47.875 C 230.491 47.669,230.491 47.331,230.451 47.125 C 230.411 46.919,230.379 47.087,230.379 47.500 M244.272 47.930 C 244.010 48.161,243.841 48.397,243.897 48.453 C 243.954 48.509,244.019 48.524,244.042 48.486 C 244.065 48.448,244.265 48.210,244.487 47.958 C 244.989 47.390,244.901 47.378,244.272 47.930 M325.879 48.500 C 325.879 48.913,325.911 49.081,325.951 48.875 C 325.991 48.669,325.991 48.331,325.951 48.125 C 325.911 47.919,325.879 48.087,325.879 48.500 M312.058 48.188 C 312.237 48.293,312.427 48.306,312.513 48.220 C 312.599 48.134,312.471 48.059,312.206 48.040 C 311.806 48.012,311.788 48.030,312.058 48.188 M289.768 50.930 C 289.611 51.338,289.645 51.392,289.917 51.167 C 290.194 50.937,290.248 50.667,290.018 50.667 C 289.936 50.667,289.823 50.785,289.768 50.930 M289.289 52.819 C 289.239 53.010,289.278 53.215,289.375 53.276 C 289.474 53.337,289.503 53.306,289.441 53.207 C 289.381 53.109,289.404 53.003,289.494 52.973 C 289.586 52.941,289.596 52.820,289.518 52.694 C 289.413 52.526,289.357 52.556,289.289 52.819 M110.073 69.917 C 110.073 72.392,110.096 73.427,110.124 72.218 C 110.153 71.009,110.153 68.984,110.125 67.718 C 110.096 66.452,110.073 67.442,110.073 69.917 M62.244 73.333 C 62.244 77.596,62.265 79.340,62.292 77.208 C 62.318 75.077,62.318 71.590,62.292 69.458 C 62.265 67.327,62.244 69.071,62.244 73.333 M84.736 78.167 C 84.736 79.954,84.761 80.685,84.791 79.792 C 84.821 78.898,84.821 77.435,84.791 76.542 C 84.761 75.648,84.736 76.379,84.736 78.167 M88.069 78.000 C 88.069 79.696,88.094 80.390,88.124 79.542 C 88.154 78.694,88.154 77.306,88.124 76.458 C 88.094 75.610,88.069 76.304,88.069 78.000 " stroke="none" fill="#ecdbec" fill-rule="evenodd"></path></g></svg>