<svg id="svg" version="1.1" xmlns="http://www.w3.org/2000/svg" xmlns:xlink="http://www.w3.org/1999/xlink" width="400" height="93.86640178793147" viewBox="0, 0, 400,93.86640178793147"><g id="svgg"><path id="path0" d="M62.167 35.998 L 62.167 59.995 85.708 59.996 C 98.656 59.996,109.419 59.951,109.625 59.896 L 110.000 59.794 110.000 35.897 L 110.000 12.000 86.083 12.000 L 62.167 12.000 62.167 35.998 M88.128 20.208 C 88.592 21.499,89.141 23.660,89.239 24.583 L 89.346 25.583 87.925 27.070 C 85.031 30.097,84.061 33.327,85.232 36.036 C 85.569 36.815,85.568 36.820,85.167 36.715 C 84.983 36.667,84.833 36.562,84.833 36.481 C 84.833 36.400,84.757 36.333,84.663 36.333 C 83.991 36.333,82.005 34.487,81.383 33.284 C 80.585 31.740,81.145 28.016,82.303 27.172 C 82.370 27.123,82.565 26.858,82.736 26.583 C 82.908 26.308,83.219 25.896,83.427 25.667 C 83.636 25.438,84.081 24.950,84.415 24.583 C 85.514 23.380,86.844 21.518,87.271 20.584 C 87.759 19.519,87.863 19.473,88.128 20.208 M92.925 23.542 C 93.082 24.023,93.288 24.514,93.383 24.634 C 93.478 24.753,93.589 25.616,93.629 26.551 C 93.715 28.555,93.675 28.630,92.000 29.536 C 90.018 30.609,89.590 30.901,88.631 31.834 C 87.616 32.822,86.787 34.356,86.425 35.917 L 86.232 36.750 85.836 35.750 C 84.555 32.520,86.513 28.096,90.208 25.871 C 90.460 25.719,90.667 25.547,90.667 25.488 C 90.667 25.430,90.835 25.199,91.042 24.975 C 91.248 24.751,91.567 24.275,91.750 23.918 C 92.041 23.350,92.509 22.667,92.607 22.667 C 92.625 22.667,92.768 23.060,92.925 23.542 M81.083 24.599 C 81.879 26.398,81.906 26.710,81.344 27.623 C 79.480 30.654,80.190 34.105,83.121 36.250 L 84.032 36.917 83.391 36.971 C 78.488 37.390,75.577 32.182,78.284 27.833 C 79.282 26.231,80.333 24.216,80.333 23.907 C 80.333 23.383,80.692 23.715,81.083 24.599 M96.431 27.792 C 95.923 33.474,93.152 36.770,88.718 36.967 C 86.726 37.056,86.745 37.078,87.321 35.370 C 88.099 33.063,89.473 31.578,92.154 30.146 C 93.891 29.218,95.448 27.976,96.006 27.073 C 96.511 26.257,96.560 26.340,96.431 27.792 M89.167 38.917 L 89.167 40.000 85.875 39.997 C 82.129 39.995,82.247 40.030,82.238 38.917 C 82.230 37.806,82.121 37.839,85.875 37.836 L 89.167 37.833 89.167 38.917 M87.719 40.625 C 87.806 40.776,86.924 48.576,86.687 49.750 C 86.595 50.208,86.472 51.146,86.415 51.833 C 86.276 53.498,86.059 54.167,85.657 54.167 C 85.253 54.167,85.231 54.066,84.820 50.333 C 84.634 48.637,84.339 45.975,84.164 44.417 C 83.990 42.858,83.844 41.340,83.840 41.042 L 83.833 40.500 85.740 40.500 C 86.789 40.500,87.679 40.556,87.719 40.625 M62.278 65.444 C 62.217 65.506,62.167 69.108,62.167 73.450 L 62.167 81.345 63.843 81.297 L 65.520 81.250 65.505 76.292 C 65.496 73.101,65.550 71.333,65.657 71.333 C 65.800 71.333,66.693 72.415,67.498 73.563 C 67.634 73.757,68.386 74.742,69.167 75.750 C 69.949 76.758,71.224 78.427,71.999 79.458 L 73.410 81.333 74.873 81.333 L 76.337 81.333 76.293 73.375 L 76.250 65.417 74.625 65.391 L 73.000 65.365 73.000 70.182 C 73.000 75.319,72.992 75.365,72.240 74.315 C 71.971 73.939,71.636 73.507,71.498 73.355 C 71.359 73.203,71.060 72.818,70.833 72.500 C 70.607 72.182,70.308 71.798,70.169 71.648 C 69.906 71.364,67.935 68.742,67.500 68.097 C 67.182 67.627,66.205 66.388,65.681 65.792 C 65.284 65.340,62.651 65.071,62.278 65.444 M78.667 65.437 C 78.667 65.545,79.870 67.429,80.166 67.785 C 80.258 67.895,80.333 68.029,80.333 68.082 C 80.333 68.134,80.682 68.719,81.108 69.380 C 82.029 70.811,82.431 71.442,83.198 72.667 C 83.514 73.171,83.973 73.900,84.219 74.288 C 84.664 74.989,84.667 75.010,84.667 78.163 L 84.667 81.333 86.417 81.333 L 88.167 81.333 88.167 78.107 C 88.167 74.982,88.179 74.861,88.564 74.295 C 88.782 73.973,89.174 73.344,89.434 72.897 C 89.694 72.449,90.041 71.938,90.204 71.760 C 90.367 71.583,90.500 71.378,90.500 71.306 C 90.500 71.189,91.780 69.175,92.124 68.750 C 92.199 68.658,92.475 68.213,92.738 67.760 C 93.002 67.308,93.424 66.634,93.678 66.263 C 94.292 65.362,94.248 65.333,92.252 65.333 C 90.136 65.333,90.364 65.141,88.431 68.559 C 88.165 69.031,87.896 69.454,87.835 69.500 C 87.774 69.546,87.511 69.978,87.251 70.461 C 86.437 71.970,86.436 71.970,85.110 69.500 C 84.839 68.996,84.566 68.546,84.502 68.500 C 84.395 68.422,83.800 67.414,83.002 65.958 L 82.660 65.333 80.663 65.333 C 79.565 65.333,78.667 65.380,78.667 65.437 M96.329 65.450 C 95.973 76.401,96.580 79.316,99.500 80.680 C 99.912 80.872,100.430 81.117,100.650 81.223 C 101.436 81.603,104.944 81.470,106.136 81.015 C 109.505 79.731,110.221 77.667,110.129 69.500 L 110.083 65.417 108.417 65.417 L 106.750 65.417 106.667 70.667 C 106.575 76.470,106.493 76.906,105.373 77.619 C 105.122 77.778,104.863 77.986,104.798 78.079 C 104.732 78.173,104.057 78.250,103.298 78.250 C 101.609 78.250,100.735 77.781,100.255 76.617 C 100.096 76.232,99.898 75.786,99.816 75.627 C 99.734 75.468,99.667 73.096,99.667 70.356 L 99.667 65.374 98.000 65.346 C 97.083 65.330,96.331 65.377,96.329 65.450 " stroke="none" fill="#fbfafb" fill-rule="evenodd"></path><path id="path1" d="M0.000 46.917 L 0.000 93.833 67.667 93.833 L 135.333 93.833 135.333 92.250 L 135.333 90.667 234.250 90.667 L 333.167 90.667 333.167 89.250 L 333.167 87.833 234.250 87.833 L 135.333 87.833 135.333 85.667 L 135.333 83.500 238.000 83.500 L 340.667 83.500 340.667 81.667 L 340.667 79.833 238.000 79.833 L 135.333 79.833 135.333 77.333 L 135.333 74.833 245.167 74.833 L 355.000 74.833 355.000 72.167 L 355.000 69.500 245.167 69.500 L 135.333 69.500 135.333 67.000 L 135.333 64.500 251.333 64.500 L 367.333 64.500 367.333 60.536 L 367.333 56.572 252.426 56.640 C 189.227 56.677,137.027 56.655,136.426 56.590 L 135.333 56.473 135.333 28.237 L 135.333 0.000 67.667 0.000 L 0.000 0.000 0.000 46.917 M110.126 35.958 L 110.083 60.083 86.083 60.083 L 62.083 60.083 62.041 35.958 L 61.999 11.833 86.083 11.833 L 110.168 11.833 110.126 35.958 M87.416 20.668 C 87.233 21.140,86.970 21.652,86.832 21.805 C 86.694 21.958,86.460 22.271,86.313 22.500 C 86.060 22.894,83.888 25.464,83.355 26.000 C 82.901 26.456,81.854 28.181,81.654 28.804 C 81.545 29.141,81.401 29.492,81.333 29.583 C 80.155 31.168,81.822 34.616,84.490 36.115 L 85.211 36.520 85.089 36.135 C 83.959 32.559,84.637 30.277,87.809 26.984 C 89.477 25.252,89.452 25.419,88.533 22.083 C 88.357 21.442,88.108 20.667,87.981 20.363 L 87.750 19.809 87.416 20.668 M92.333 23.130 C 92.333 23.716,90.884 25.527,89.570 26.583 C 88.685 27.294,87.828 28.163,87.259 28.926 C 86.989 29.287,86.726 29.621,86.675 29.667 C 86.461 29.861,86.030 30.790,85.923 31.290 C 85.860 31.587,85.738 31.872,85.654 31.925 C 85.455 32.048,85.453 34.250,85.653 34.627 C 85.736 34.786,85.876 35.179,85.962 35.500 C 86.057 35.851,86.152 35.984,86.201 35.833 C 86.246 35.696,86.374 35.321,86.486 35.000 C 86.598 34.679,86.706 34.334,86.726 34.233 C 86.746 34.133,86.891 33.854,87.048 33.614 C 87.205 33.375,87.333 33.112,87.333 33.032 C 87.333 32.556,89.461 30.774,91.171 29.816 C 93.484 28.521,93.567 28.405,93.457 26.623 C 93.358 25.031,92.333 21.844,92.333 23.130 M80.447 24.275 C 80.385 24.338,80.333 24.526,80.333 24.694 C 80.333 24.863,80.277 25.000,80.208 25.000 C 80.140 25.001,79.864 25.451,79.596 26.000 C 79.328 26.550,79.057 27.000,78.994 27.000 C 78.931 27.000,78.701 27.337,78.482 27.750 C 78.263 28.162,78.034 28.500,77.972 28.500 C 77.281 28.500,77.262 33.478,77.951 33.985 C 78.024 34.039,78.196 34.302,78.334 34.569 C 78.870 35.614,80.611 36.493,82.666 36.758 L 83.583 36.876 82.833 36.252 C 81.238 34.923,80.664 34.159,80.424 33.044 C 80.360 32.747,80.238 32.461,80.154 32.409 C 79.959 32.289,79.952 30.592,80.144 30.206 C 80.223 30.047,80.460 29.374,80.669 28.712 C 80.878 28.049,81.189 27.381,81.358 27.227 C 81.761 26.863,81.749 26.688,81.235 25.453 C 80.761 24.316,80.619 24.104,80.447 24.275 M95.997 27.395 C 95.550 28.108,93.899 29.404,92.479 30.154 C 90.255 31.329,88.886 32.507,88.222 33.815 C 88.054 34.146,87.870 34.454,87.814 34.500 C 87.694 34.597,87.167 36.369,87.167 36.673 C 87.167 36.827,87.554 36.858,88.708 36.798 C 92.416 36.602,95.024 34.130,95.889 29.989 C 96.099 28.984,96.348 27.000,96.264 27.000 C 96.253 27.000,96.133 27.178,95.997 27.395 M82.500 38.895 L 82.500 39.790 85.792 39.821 L 89.083 39.852 89.026 38.926 L 88.969 38.000 85.735 38.000 L 82.500 38.000 82.500 38.895 M84.057 41.888 C 84.112 42.545,84.237 43.683,84.335 44.417 C 84.557 46.075,84.619 46.650,85.000 50.562 C 85.169 52.292,85.381 53.781,85.472 53.872 C 85.773 54.173,85.975 53.841,86.082 52.872 C 86.171 52.064,86.313 50.962,86.757 47.622 C 87.068 45.281,87.169 44.467,87.239 43.750 C 87.283 43.292,87.370 42.416,87.432 41.804 L 87.546 40.692 85.752 40.692 L 83.958 40.692 84.057 41.888 M65.625 65.463 C 65.785 65.626,66.929 67.090,68.167 68.715 C 69.404 70.341,70.660 71.989,70.958 72.377 C 71.255 72.766,71.696 73.365,71.938 73.708 C 72.798 74.931,72.833 74.773,72.833 69.744 L 72.833 65.155 74.625 65.203 L 76.417 65.250 76.417 73.333 L 76.417 81.417 74.792 81.464 C 73.898 81.491,73.167 81.447,73.167 81.369 C 73.167 81.245,72.183 79.895,71.405 78.952 C 71.270 78.788,70.303 77.513,69.256 76.119 C 68.209 74.724,67.192 73.396,66.995 73.167 C 66.798 72.938,66.515 72.544,66.366 72.292 C 65.879 71.469,65.839 71.775,65.794 76.625 L 65.750 81.417 63.917 81.417 L 62.083 81.417 62.040 73.500 C 62.016 69.146,62.032 65.490,62.076 65.375 C 62.214 65.017,65.261 65.093,65.625 65.463 M83.245 66.087 C 83.569 66.593,83.833 67.063,83.833 67.131 C 83.833 67.200,84.017 67.526,84.241 67.856 C 84.465 68.185,84.851 68.822,85.099 69.269 C 85.347 69.717,85.604 70.121,85.669 70.167 C 85.734 70.212,85.932 70.534,86.109 70.881 L 86.430 71.511 87.542 69.631 C 88.154 68.596,88.716 67.675,88.790 67.583 C 88.865 67.492,89.141 67.042,89.403 66.583 C 90.239 65.121,90.144 65.167,92.349 65.167 C 94.141 65.167,94.788 65.302,94.334 65.583 C 94.239 65.642,94.003 66.003,93.808 66.386 C 93.614 66.770,93.296 67.283,93.102 67.526 C 92.909 67.770,92.508 68.370,92.212 68.859 C 91.741 69.641,90.487 71.617,90.009 72.333 C 89.917 72.471,89.521 73.071,89.129 73.666 L 88.417 74.749 88.333 78.083 L 88.250 81.417 86.417 81.417 L 84.583 81.417 84.500 78.167 L 84.417 74.917 83.879 74.083 C 83.583 73.625,83.154 72.901,82.925 72.474 C 82.697 72.047,82.452 71.672,82.380 71.641 C 82.309 71.609,82.069 71.246,81.847 70.833 C 81.625 70.421,81.288 69.884,81.097 69.641 C 80.906 69.397,80.508 68.797,80.213 68.307 C 79.917 67.817,79.411 67.007,79.088 66.506 C 78.212 65.147,78.190 65.167,80.578 65.167 L 82.656 65.167 83.245 66.087 M99.836 70.500 C 99.948 77.335,100.279 78.091,103.154 78.077 C 106.124 78.064,106.389 77.462,106.500 70.500 L 106.583 65.250 108.417 65.250 L 110.250 65.250 110.299 69.250 C 110.420 79.193,109.037 81.583,103.167 81.583 C 99.260 81.583,97.150 80.041,96.203 76.490 C 96.026 75.827,95.919 65.599,96.086 65.328 C 96.152 65.222,96.873 65.174,97.972 65.203 L 99.750 65.250 99.836 70.500 " stroke="none" fill="#54048b" fill-rule="evenodd"></path><path id="path2" d="M191.833 32.013 L 191.833 36.026 191.142 35.434 C 189.164 33.741,186.002 34.042,183.966 36.117 C 180.534 39.615,181.406 47.281,185.462 49.270 C 186.337 49.699,188.805 49.797,189.572 49.433 C 189.881 49.287,190.184 49.167,190.245 49.167 C 190.487 49.167,191.571 48.225,191.842 47.779 L 192.131 47.304 192.248 48.319 L 192.366 49.333 193.793 49.333 L 195.219 49.333 195.110 46.557 C 195.049 45.030,195.000 40.230,195.000 35.890 L 195.000 28.000 193.417 28.000 L 191.833 28.000 191.833 32.013 M237.627 38.667 L 237.583 49.333 239.042 49.333 L 240.500 49.333 240.500 48.320 L 240.500 47.307 241.048 48.026 C 243.756 51.577,249.483 49.498,250.763 44.499 C 252.576 37.422,246.506 31.414,241.809 35.637 L 241.000 36.364 241.000 32.182 L 241.000 28.000 239.336 28.000 L 237.672 28.000 237.627 38.667 M137.667 39.167 L 137.667 49.333 139.250 49.333 L 140.833 49.333 140.833 44.917 L 140.833 40.500 144.333 40.500 L 147.833 40.500 147.833 39.167 L 147.833 37.833 144.333 37.833 L 140.833 37.833 140.833 34.750 L 140.833 31.667 144.667 31.667 L 148.500 31.667 148.500 30.333 L 148.500 29.000 143.083 29.000 L 137.667 29.000 137.667 39.167 M197.500 29.219 C 197.500 29.339,197.641 29.995,197.813 30.677 C 197.985 31.359,198.244 32.442,198.389 33.083 C 198.534 33.725,198.805 34.925,198.992 35.750 C 199.178 36.575,199.399 37.475,199.483 37.750 C 199.567 38.025,199.683 38.550,199.741 38.917 C 199.799 39.283,199.912 39.771,199.991 40.000 C 200.070 40.229,200.252 40.942,200.394 41.583 C 201.034 44.467,201.707 47.328,202.051 48.625 L 202.239 49.333 203.958 49.333 C 205.190 49.333,205.694 49.274,205.738 49.125 C 205.796 48.929,206.823 44.709,207.534 41.750 C 207.710 41.017,207.966 39.967,208.102 39.417 C 208.463 37.957,208.806 36.389,209.011 35.250 C 209.294 33.681,209.371 33.659,209.589 35.083 C 209.812 36.540,210.198 38.520,210.564 40.083 C 210.978 41.858,211.363 43.559,211.580 44.583 C 211.991 46.515,212.346 48.089,212.512 48.708 L 212.680 49.333 214.398 49.333 L 216.117 49.333 216.908 46.208 C 217.343 44.490,217.796 42.671,217.916 42.167 C 218.036 41.662,218.398 40.237,218.721 39.000 C 220.450 32.380,220.718 31.341,220.913 30.500 C 221.030 29.996,221.180 29.452,221.247 29.292 C 221.359 29.025,221.222 29.000,219.639 29.000 L 217.910 29.000 217.710 29.958 C 217.402 31.440,217.028 33.150,216.770 34.250 C 216.641 34.800,216.407 35.813,216.250 36.500 C 216.093 37.188,215.859 38.200,215.730 38.750 C 215.439 39.999,215.039 42.017,214.746 43.725 C 214.463 45.377,214.406 45.423,214.272 44.114 C 214.179 43.209,213.709 40.829,212.751 36.417 C 212.632 35.867,212.382 34.667,212.197 33.750 C 212.012 32.833,211.823 31.971,211.778 31.833 C 211.732 31.696,211.565 31.002,211.406 30.292 L 211.117 29.000 209.486 29.000 C 207.653 29.000,207.827 28.861,207.499 30.583 C 207.394 31.133,207.239 31.808,207.155 32.083 C 206.960 32.723,205.746 37.838,205.059 40.917 C 204.916 41.558,204.735 42.308,204.656 42.583 C 204.577 42.858,204.462 43.479,204.401 43.962 C 204.241 45.219,204.077 45.166,203.861 43.786 C 203.560 41.861,203.055 39.245,202.087 34.583 C 201.744 32.933,201.363 31.076,201.239 30.455 C 201.116 29.834,200.970 29.253,200.915 29.163 C 200.752 28.900,197.500 28.953,197.500 29.219 M254.833 29.150 L 254.083 29.250 254.040 39.292 L 253.997 49.333 255.582 49.333 L 257.167 49.333 257.167 45.458 L 257.168 41.583 259.125 41.563 C 263.904 41.512,266.341 39.435,266.473 35.303 C 266.636 30.142,262.760 28.093,254.833 29.150 M295.423 29.457 C 294.764 30.167,294.811 31.523,295.518 32.183 C 297.253 33.804,299.858 31.166,298.179 29.487 C 297.482 28.790,296.056 28.774,295.423 29.457 M331.208 31.539 L 329.667 32.045 329.667 33.356 L 329.667 34.667 328.667 34.667 L 327.667 34.667 327.667 35.917 L 327.667 37.167 328.667 37.167 L 329.667 37.167 329.669 41.542 C 329.672 48.555,330.266 49.667,334.013 49.667 C 336.167 49.667,336.269 49.593,336.167 48.128 L 336.083 46.937 335.027 46.981 C 333.068 47.062,332.833 46.419,332.833 40.970 L 332.833 37.167 334.583 37.167 L 336.333 37.167 336.333 35.917 L 336.333 34.667 334.589 34.667 L 332.844 34.667 332.797 32.850 L 332.750 31.033 331.208 31.539 M261.425 31.963 C 265.664 34.136,262.375 40.134,257.601 38.936 L 257.167 38.827 257.167 35.258 L 257.167 31.689 257.625 31.609 C 258.663 31.428,260.763 31.624,261.425 31.963 M155.500 34.654 C 151.731 35.848,149.639 40.457,150.919 44.750 C 153.024 51.811,162.981 51.236,164.157 43.986 C 165.208 37.511,160.954 32.926,155.500 34.654 M171.204 34.602 C 167.552 35.595,165.411 39.890,166.414 44.212 C 168.156 51.725,178.033 51.653,179.742 44.115 C 181.134 37.982,176.748 33.096,171.204 34.602 M227.083 34.622 C 224.051 35.545,222.583 38.060,222.583 42.333 C 222.583 47.394,224.763 49.667,229.616 49.667 C 232.980 49.667,234.104 49.196,233.921 47.864 C 233.750 46.624,233.575 46.461,232.750 46.771 C 229.328 48.058,226.032 46.563,225.627 43.541 L 225.532 42.833 230.183 42.833 L 234.833 42.833 234.833 41.482 C 234.833 36.308,231.432 33.298,227.083 34.622 M274.575 34.657 C 273.828 34.990,272.906 35.883,272.458 36.708 L 272.167 37.245 272.167 35.956 L 272.167 34.667 270.708 34.666 L 269.250 34.666 269.358 36.875 C 269.417 38.089,269.473 41.390,269.483 44.208 L 269.500 49.333 271.083 49.333 L 272.667 49.333 272.674 44.958 C 272.683 38.904,273.298 37.500,275.940 37.500 L 276.833 37.500 276.833 35.917 L 276.833 34.333 276.042 34.345 C 275.606 34.352,274.946 34.492,274.575 34.657 M283.167 34.598 C 279.670 35.681,277.921 38.673,278.228 43.050 C 278.785 50.997,289.211 52.365,291.513 44.794 C 293.407 38.567,288.745 32.872,283.167 34.598 M305.917 34.621 C 303.096 35.477,301.436 37.997,301.220 41.750 C 300.880 47.678,305.043 50.851,311.250 49.394 C 312.828 49.023,312.880 48.962,312.644 47.743 C 312.400 46.475,312.342 46.422,311.564 46.751 C 308.313 48.128,304.786 46.537,304.380 43.510 L 304.289 42.833 308.881 42.833 L 313.474 42.833 313.586 42.322 C 313.881 40.977,313.217 37.970,312.329 36.629 C 311.060 34.713,308.380 33.873,305.917 34.621 M320.900 34.648 C 315.426 36.215,313.618 43.585,317.651 47.889 C 319.199 49.541,322.653 50.195,325.417 49.360 C 326.525 49.025,326.505 49.073,326.184 47.513 C 325.953 46.390,325.997 46.426,325.226 46.756 C 321.411 48.393,317.854 44.674,319.107 40.359 C 319.897 37.638,321.875 36.563,324.816 37.256 C 325.402 37.394,325.895 37.487,325.912 37.462 C 326.099 37.188,326.508 35.109,326.397 35.001 C 325.754 34.379,322.558 34.173,320.900 34.648 M295.160 40.708 C 295.149 51.538,294.933 52.513,292.435 52.980 C 291.444 53.165,291.456 53.149,291.657 54.020 C 291.749 54.421,291.827 54.994,291.829 55.292 C 291.834 55.924,291.860 55.928,293.513 55.581 C 295.788 55.102,297.148 54.005,297.881 52.058 C 298.238 51.110,298.249 50.860,298.300 42.875 L 298.353 34.667 296.760 34.667 L 295.167 34.667 295.160 40.708 M158.715 37.191 C 160.969 38.338,161.842 43.683,160.090 45.607 C 159.995 45.711,159.779 45.987,159.611 46.219 C 158.826 47.304,156.962 47.504,155.825 46.625 C 151.988 43.658,154.609 35.100,158.715 37.191 M174.330 37.165 C 177.106 38.581,177.313 44.599,174.656 46.642 C 171.064 49.404,167.775 42.064,170.793 38.024 C 171.610 36.930,173.141 36.558,174.330 37.165 M230.248 37.165 C 230.928 37.585,231.667 38.983,231.667 39.849 L 231.667 40.500 228.667 40.500 L 225.667 40.500 225.667 40.010 C 225.667 39.740,225.733 39.478,225.815 39.428 C 225.896 39.378,226.014 39.135,226.075 38.890 C 226.496 37.212,228.790 36.264,230.248 37.165 M286.254 37.186 C 289.817 38.861,288.910 47.167,285.165 47.167 C 282.821 47.167,281.573 45.302,281.594 41.833 C 281.617 38.150,283.759 36.013,286.254 37.186 M308.800 37.067 C 309.718 37.545,310.500 38.935,310.500 40.089 L 310.500 40.500 307.417 40.500 C 305.721 40.500,304.333 40.438,304.333 40.363 C 304.333 38.098,307.000 36.131,308.800 37.067 M189.556 37.179 C 192.487 37.993,192.808 45.324,189.976 46.737 C 187.443 48.001,185.288 45.869,185.271 42.083 C 185.255 38.468,187.001 36.470,189.556 37.179 M244.984 37.162 C 248.719 38.233,248.578 46.177,244.809 47.024 C 242.316 47.584,240.920 45.638,241.031 41.758 C 241.133 38.187,242.602 36.479,244.984 37.162 " stroke="none" fill="#4d4c4d" fill-rule="evenodd"></path><path id="path3" d="M110.041 35.863 C 110.002 58.509,109.984 59.813,109.708 59.885 C 109.435 59.957,109.435 59.963,109.714 59.981 C 110.183 60.011,110.171 60.729,110.126 35.750 L 110.082 11.917 110.041 35.863 M96.372 27.500 C 96.372 27.821,96.406 27.952,96.448 27.792 C 96.490 27.631,96.490 27.369,96.448 27.208 C 96.406 27.048,96.372 27.179,96.372 27.500 M80.879 31.167 C 80.879 31.579,80.911 31.748,80.951 31.542 C 80.991 31.335,80.991 30.998,80.951 30.792 C 80.911 30.585,80.879 30.754,80.879 31.167 M80.209 31.250 C 80.211 31.617,80.245 31.747,80.285 31.540 C 80.324 31.332,80.323 31.032,80.281 30.873 C 80.239 30.714,80.207 30.883,80.209 31.250 M84.718 33.417 C 84.719 33.967,84.750 34.172,84.787 33.872 C 84.825 33.572,84.824 33.122,84.786 32.872 C 84.748 32.622,84.717 32.867,84.718 33.417 M84.125 37.958 C 85.065 37.987,86.602 37.987,87.542 37.958 C 88.481 37.928,87.712 37.904,85.833 37.904 C 83.954 37.904,83.185 37.928,84.125 37.958 M82.239 38.914 C 82.243 39.405,82.302 39.720,82.371 39.612 C 82.538 39.349,82.534 38.207,82.366 38.104 C 82.292 38.058,82.235 38.423,82.239 38.914 M84.125 39.958 C 85.065 39.987,86.602 39.987,87.542 39.958 C 88.481 39.928,87.712 39.904,85.833 39.904 C 83.954 39.904,83.185 39.928,84.125 39.958 M85.660 40.622 C 86.911 40.659,87.620 40.748,87.715 40.881 C 87.818 41.026,87.839 41.012,87.791 40.833 C 87.735 40.630,87.356 40.582,85.736 40.574 L 83.750 40.566 85.660 40.622 M84.357 46.833 C 84.357 46.971,84.421 47.233,84.500 47.417 C 84.590 47.627,84.643 47.658,84.643 47.500 C 84.643 47.362,84.579 47.100,84.500 46.917 C 84.410 46.707,84.357 46.676,84.357 46.833 M72.907 70.167 C 72.907 72.871,72.930 73.977,72.958 72.625 C 72.986 71.273,72.986 69.060,72.958 67.708 C 72.930 66.356,72.907 67.462,72.907 70.167 M96.241 70.667 C 96.241 73.462,96.263 74.606,96.291 73.208 C 96.319 71.810,96.319 69.523,96.291 68.125 C 96.263 66.727,96.241 67.871,96.241 70.667 M65.539 76.208 L 65.578 81.083 65.625 76.268 L 65.672 71.453 66.044 71.768 L 66.417 72.083 66.099 71.708 C 65.530 71.036,65.500 71.276,65.539 76.208 M110.045 75.167 C 110.045 75.579,110.078 75.748,110.118 75.542 C 110.157 75.335,110.157 74.998,110.118 74.792 C 110.078 74.585,110.045 74.754,110.045 75.167 " stroke="none" fill="#ac84c4" fill-rule="evenodd"></path><path id="path4" d="M62.081 35.917 C 62.081 48.842,62.101 54.154,62.125 47.721 C 62.149 41.289,62.149 30.714,62.125 24.221 C 62.101 17.729,62.081 22.992,62.081 35.917 M106.574 70.333 C 106.574 73.037,106.597 74.144,106.625 72.792 C 106.653 71.440,106.653 69.227,106.625 67.875 C 106.597 66.523,106.574 67.629,106.574 70.333 M102.792 81.618 C 102.998 81.657,103.335 81.657,103.542 81.618 C 103.748 81.578,103.579 81.545,103.167 81.545 C 102.754 81.545,102.585 81.578,102.792 81.618 " stroke="none" fill="#a475c4" fill-rule="evenodd"></path><path id="path5" d="" stroke="none" fill="#ac7cc4" fill-rule="evenodd"></path><path id="path6" d="M62.109 11.958 C 62.039 12.071,78.461 12.071,101.417 11.957 C 106.183 11.933,99.307 11.896,86.135 11.873 C 72.963 11.851,62.152 11.890,62.109 11.958 M80.042 31.250 C 80.044 31.617,80.078 31.747,80.118 31.540 C 80.158 31.332,80.156 31.032,80.115 30.873 C 80.073 30.714,80.040 30.883,80.042 31.250 M99.710 70.000 C 99.699 72.612,99.741 74.879,99.803 75.037 C 99.909 75.303,99.890 68.503,99.780 66.250 C 99.753 65.700,99.722 67.387,99.710 70.000 M62.081 73.417 L 62.083 81.417 63.750 81.425 L 65.417 81.434 63.793 81.378 L 62.170 81.322 62.124 73.369 L 62.078 65.417 62.081 73.417 M76.373 73.369 L 76.333 81.321 74.792 81.376 L 73.250 81.431 74.797 81.465 C 75.907 81.490,76.366 81.441,76.424 81.292 C 76.468 81.177,76.483 77.558,76.458 73.250 L 76.413 65.417 76.373 73.369 M88.204 78.119 L 88.167 81.322 86.375 81.376 L 84.583 81.429 86.380 81.465 C 88.547 81.507,88.354 81.858,88.292 77.995 L 88.242 74.917 88.204 78.119 M102.875 78.282 C 103.035 78.323,103.298 78.323,103.458 78.282 C 103.619 78.240,103.487 78.205,103.167 78.205 C 102.846 78.205,102.715 78.240,102.875 78.282 " stroke="none" fill="#7c3ba4" fill-rule="evenodd"></path><path id="path7" d="M93.542 27.083 C 93.544 27.450,93.578 27.580,93.618 27.373 C 93.658 27.166,93.656 26.866,93.615 26.706 C 93.573 26.547,93.540 26.717,93.542 27.083 M84.542 33.417 C 84.544 33.783,84.578 33.914,84.618 33.706 C 84.658 33.499,84.656 33.199,84.615 33.040 C 84.573 32.880,84.540 33.050,84.542 33.417 M87.625 36.954 C 87.923 36.991,88.410 36.991,88.708 36.954 C 89.006 36.917,88.763 36.887,88.167 36.887 C 87.571 36.887,87.327 36.917,87.625 36.954 M89.050 38.833 C 89.050 39.337,89.081 39.544,89.119 39.292 C 89.158 39.040,89.158 38.627,89.119 38.375 C 89.081 38.123,89.050 38.329,89.050 38.833 M84.205 44.000 C 84.205 44.321,84.240 44.452,84.282 44.292 C 84.323 44.131,84.323 43.869,84.282 43.708 C 84.240 43.548,84.205 43.679,84.205 44.000 M74.138 60.125 C 80.768 60.149,91.568 60.149,98.138 60.125 C 104.708 60.101,99.283 60.081,86.083 60.081 C 72.883 60.081,67.508 60.101,74.138 60.125 M62.109 65.292 C 62.066 65.360,62.568 65.396,63.224 65.371 C 65.254 65.293,65.489 65.221,63.802 65.193 C 62.913 65.179,62.151 65.223,62.109 65.292 M73.333 65.274 C 74.713 65.397,76.463 65.407,76.391 65.292 C 76.349 65.223,75.512 65.179,74.532 65.195 C 73.552 65.210,73.012 65.246,73.333 65.274 M79.549 65.290 C 80.171 65.323,81.146 65.322,81.715 65.290 C 82.284 65.257,81.775 65.231,80.583 65.231 C 79.392 65.232,78.926 65.258,79.549 65.290 M92.298 65.291 C 93.760 65.329,94.313 65.397,94.231 65.531 C 94.160 65.646,94.190 65.672,94.310 65.598 C 94.800 65.295,94.156 65.169,92.282 65.203 L 90.250 65.239 92.298 65.291 M96.109 65.292 C 96.066 65.360,96.605 65.396,97.307 65.371 C 99.546 65.292,99.803 65.224,97.968 65.195 C 96.988 65.179,96.151 65.223,96.109 65.292 M107.167 65.274 C 108.547 65.397,110.296 65.407,110.225 65.292 C 110.182 65.223,109.345 65.179,108.365 65.195 C 107.385 65.210,106.846 65.246,107.167 65.274 M96.074 70.417 C 96.074 73.075,96.097 74.139,96.125 72.781 C 96.153 71.424,96.153 69.249,96.125 67.948 C 96.096 66.647,96.073 67.758,96.074 70.417 M110.239 69.917 C 110.239 72.300,110.263 73.252,110.291 72.032 C 110.320 70.812,110.320 68.862,110.291 67.698 C 110.263 66.535,110.239 67.533,110.239 69.917 M65.630 76.575 C 65.604 79.275,65.637 81.430,65.703 81.364 C 65.861 81.206,65.953 71.666,65.797 71.667 C 65.730 71.667,65.655 73.876,65.630 76.575 M84.500 78.133 L 84.583 81.417 84.628 78.262 C 84.654 76.527,84.616 75.049,84.545 74.978 C 84.475 74.907,84.454 76.327,84.500 78.133 " stroke="none" fill="#6f299d" fill-rule="evenodd"></path><path id="path8" d="" stroke="none" fill="#340474" fill-rule="evenodd"></path></g></svg>